<?xml version="1.0" encoding="UTF-8"?>
<svg xmlns="http://www.w3.org/2000/svg" viewBox="0 0 378.71 407.08">
  <defs>
    <style>
      .cls-1 {
        fill: #fafafa;
      }

      .cls-2 {
        fill: #f5f5f5;
      }

      .cls-3 {
        fill: #455a64;
      }

      .cls-4 {
        fill: #e0e0e0;
      }

      .cls-5 {
        fill: #e8505b;
      }

      .cls-6 {
        fill: #eb996e;
      }

      .cls-7 {
        opacity: .3;
      }

      .cls-8 {
        fill: #ffbe9d;
      }

      .cls-9 {
        fill: #ebebeb;
      }

      .cls-10 {
        fill: #263238;
      }
    </style>
  </defs>
  <g id="Background_Complete" data-name="Background Complete">
    <g>
      <path class="cls-2" d="M121.11,382.24c23.23-20.07,25.56-53.12,21.56-82.19-.67-4.85-.66-10.04-3.42-14.08-2.76-4.03-8.47-6.4-12.61-3.89-3.44,2.08-4.58,6.45-6.25,10.13-2.21,4.91-5.83,9.15-10.3,12.09-2.94,1.93-6.67,3.31-9.91,1.94-4.44-1.88-5.53-7.64-6-12.49-.87-9.03-1.75-18.07-2.62-27.1-.47-4.85-.97-9.79-2.95-14.24-1.98-4.44-5.75-8.37-10.49-9.19-4.74-.81-10.17,2.43-10.65,7.27-.2,2.01,.41,4.02,.48,6.05,.07,2.03-.63,4.35-2.49,5.1-1.87,.77-3.95-.41-5.55-1.67-5.5-4.38-9.55-10.33-13.36-16.26-3.82-5.94-7.56-12.04-12.64-16.9-5.09-4.87-11.8-8.45-18.78-8.12-6.98,.32-13.93,5.37-14.98,12.36-1.05,7.01,3.65,13.53,8.55,18.61,7.28,7.54,15.64,14.01,24.73,19.14,1.64,.93,3.41,1.93,4.18,3.66,1.39,3.12-1.34,6.64-4.42,8.03-3.49,1.58-7.44,1.6-11.17,2.44-3.73,.83-7.65,2.92-8.71,6.64-1.47,5.16,3.2,9.92,7.63,12.9,8.86,5.97,18.73,10.38,29.05,13,3.7,.94,7.57,1.69,10.7,3.9,3.13,2.21,5.32,6.38,3.93,9.97-1.38,3.6-5.73,5.15-9.53,4.84-3.8-.31-7.35-1.99-11.05-2.96-6.92-1.83-15.47-.48-19.14,5.71-2.41,4.07-2.12,9.36-.23,13.72,1.88,4.36,5.16,7.95,8.58,11.21,11.96,11.42,26.66,20.09,42.65,23.85,15.99,3.76,30.45,3.73,45.22-3.46"/>
      <path class="cls-4" d="M123.72,403.83c-2.25-11.45-6.19-24.84-12.03-39.11-5.81-14.28-13.48-29.41-22.05-44.95-2.16-3.88-4.29-7.71-6.39-11.49-2.1-3.76-4.19-7.5-6.46-11.03-4.5-7.07-9.37-13.53-14.19-19.52-4.81-5.99-9.6-11.5-14.11-16.61-4.52-5.11-8.83-9.79-12.94-13.89-8.19-8.24-15.57-14.08-20.8-17.89-2.61-1.91-4.69-3.33-6.11-4.27-.68-.45-1.22-.8-1.62-1.06-.37-.23-.56-.35-.57-.33,0,.01,.17,.15,.52,.41,.39,.28,.91,.66,1.57,1.13,1.38,.99,3.43,2.45,6,4.41,5.16,3.89,12.45,9.79,20.56,18.06,4.07,4.12,8.34,8.81,12.83,13.94,4.48,5.14,9.24,10.65,14.03,16.64,4.78,5.98,9.62,12.43,14.09,19.47,2.25,3.51,4.31,7.21,6.42,10.99,2.1,3.77,4.22,7.61,6.38,11.48,8.56,15.53,16.23,30.61,22.07,44.83,5.86,14.21,9.85,27.52,12.17,38.91"/>
      <path class="cls-4" d="M76.54,297.25c.06,0,.15-.75,.26-2.12,.12-1.36,.22-3.34,.31-5.79,.19-4.89,.22-11.66,.22-19.12,0-7.47,.13-14.21,.39-19.09,.12-2.44,.24-4.41,.34-5.77,.09-1.36,.12-2.12,.05-2.13-.06,0-.2,.74-.4,2.09-.21,1.35-.42,3.33-.63,5.77-.43,4.88-.65,11.66-.65,19.13,.02,7.36,.03,14.02,.04,19.11,0,2.3-.02,4.24-.03,5.79,0,1.37,.03,2.13,.09,2.13Z"/>
      <path class="cls-4" d="M13.06,292.04c0,.06,.9,.07,2.51,.04,1.61-.02,3.95-.07,6.83-.03,5.77,.03,13.73,.34,22.51,1.08,8.78,.75,16.69,1.77,22.39,2.67,2.86,.43,5.16,.84,6.75,1.11,1.59,.28,2.48,.41,2.49,.35,.01-.06-.85-.3-2.42-.69-1.57-.38-3.86-.89-6.71-1.4-5.69-1.06-13.62-2.19-22.42-2.94-8.8-.73-16.8-.95-22.58-.81-2.89,.05-5.23,.19-6.84,.32-1.61,.14-2.5,.25-2.5,.31Z"/>
      <path class="cls-4" d="M110.81,363.66s.15-.27,.35-.8c.23-.64,.5-1.42,.83-2.36,.71-2.06,1.67-5.06,2.8-8.78,2.27-7.44,5.08-17.83,8.02-29.32,2.95-11.5,5.66-21.9,7.77-29.38,1.04-3.64,1.89-6.63,2.52-8.85,.27-.96,.49-1.76,.67-2.41,.14-.55,.21-.85,.18-.86-.03,0-.15,.27-.35,.81-.23,.64-.5,1.42-.83,2.36-.71,2.05-1.67,5.06-2.8,8.78-2.27,7.44-5.08,17.83-8.03,29.33-2.95,11.5-5.66,21.89-7.77,29.37-1.04,3.64-1.89,6.63-2.52,8.85-.27,.97-.49,1.76-.67,2.41-.14,.56-.21,.85-.18,.86Z"/>
      <path class="cls-4" d="M25.3,345.53s.29,.12,.86,.25c.67,.15,1.49,.33,2.49,.56,2.29,.49,5.39,1.15,9.16,1.96,7.73,1.66,18.39,4.06,30.16,6.74,11.77,2.68,22.46,4.99,30.23,6.49,3.88,.75,7.03,1.32,9.22,1.67,1.01,.16,1.84,.28,2.52,.39,.58,.08,.88,.11,.89,.07,0-.03-.29-.12-.86-.26-.67-.15-1.49-.33-2.49-.56-2.29-.49-5.39-1.15-9.16-1.96-7.73-1.65-18.39-4.06-30.16-6.74-11.77-2.68-22.46-4.99-30.22-6.48-3.88-.75-7.03-1.32-9.22-1.67-1.01-.16-1.84-.29-2.52-.39-.58-.08-.88-.11-.89-.07Z"/>
    </g>
    <g>
      <path class="cls-4" d="M97.34,161.24c-.75,0-1.47-.42-1.81-1.14l-4.34-9.03c-.27-.57-.26-1.23,.02-1.79,.29-.56,.82-.95,1.44-1.06,1.63-.28,3.12-1.3,4.09-2.8,.9-1.38,1.21-2.97,.86-4.38-.35-1.4-1.37-2.68-2.82-3.5-1.54-.88-3.38-1.14-4.91-.68-3.13,.93-5.37,4.6-4.89,8,.15,1.1-.61,2.12-1.71,2.27-1.12,.15-2.12-.61-2.27-1.71-.75-5.35,2.71-10.92,7.73-12.42,2.6-.78,5.54-.4,8.05,1.04,2.39,1.37,4.11,3.56,4.73,6.03,.62,2.48,.11,5.23-1.4,7.54-1.09,1.67-2.59,2.98-4.31,3.78l3.34,6.96c.48,1,.06,2.2-.94,2.68-.28,.13-.58,.2-.87,.2Z"/>
      <path class="cls-4" d="M101.66,163.83c.41,.81,.09,1.8-.71,2.21-.81,.41-1.8,.09-2.21-.71-.41-.81-.09-1.8,.71-2.21s1.8-.09,2.21,.71Z"/>
    </g>
    <g>
      <path class="cls-2" d="M42.38,131c-.52,0-1.02-.29-1.27-.8l-3.03-6.3c-.19-.4-.18-.86,.02-1.25,.2-.39,.57-.67,1.01-.74,1.14-.2,2.18-.91,2.86-1.96,.63-.96,.85-2.07,.6-3.06-.24-.98-.96-1.87-1.97-2.45-1.08-.62-2.36-.79-3.43-.47-2.19,.65-3.75,3.21-3.42,5.59,.11,.77-.43,1.48-1.19,1.59-.78,.11-1.48-.43-1.59-1.2-.52-3.74,1.9-7.63,5.4-8.67,1.81-.54,3.87-.28,5.62,.73,1.67,.95,2.87,2.49,3.3,4.21,.43,1.74,.08,3.65-.97,5.27-.76,1.16-1.81,2.08-3.01,2.64l2.34,4.86c.34,.7,.04,1.54-.66,1.87-.2,.09-.4,.14-.61,.14Z"/>
      <path class="cls-2" d="M45.39,132.81c.29,.56,.07,1.26-.5,1.55s-1.26,.07-1.55-.5-.07-1.26,.5-1.55,1.26-.07,1.55,.5Z"/>
    </g>
    <g>
      <path class="cls-2" d="M291.9,134.4c.22,.47,.17,1.05-.18,1.49l-4.4,5.43c-.28,.34-.7,.53-1.14,.52-.44-.01-.85-.23-1.1-.59-.67-.94-1.76-1.58-2.99-1.75-1.14-.16-2.24,.12-3.02,.76-.78,.64-1.28,1.67-1.37,2.82-.1,1.24,.29,2.47,1.04,3.3,1.53,1.7,4.51,2.02,6.51,.7,.65-.43,1.52-.25,1.94,.4,.43,.66,.25,1.52-.4,1.95-3.15,2.07-7.7,1.55-10.15-1.17-1.27-1.41-1.91-3.38-1.75-5.39,.15-1.92,1.02-3.66,2.39-4.78,1.38-1.13,3.27-1.63,5.18-1.37,1.38,.19,2.65,.75,3.68,1.59l3.39-4.19c.49-.6,1.37-.7,1.98-.21,.17,.14,.3,.31,.39,.49Z"/>
      <path class="cls-2" d="M292.25,130.89c.39-.5,1.11-.6,1.61-.21,.5,.39,.6,1.11,.21,1.61-.39,.5-1.11,.6-1.61,.21-.5-.39-.6-1.11-.21-1.61Z"/>
    </g>
    <g>
      <path class="cls-2" d="M277.24,3.95c.22,.47,.17,1.05-.18,1.49l-4.4,5.43c-.28,.34-.7,.53-1.14,.52-.44-.01-.85-.23-1.1-.59-.67-.94-1.76-1.58-2.99-1.75-1.14-.16-2.24,.12-3.02,.76-.78,.64-1.28,1.67-1.37,2.82-.1,1.24,.29,2.47,1.04,3.3,1.53,1.7,4.51,2.02,6.51,.7,.65-.43,1.52-.25,1.94,.4,.43,.66,.25,1.52-.4,1.95-3.15,2.07-7.7,1.55-10.15-1.17-1.27-1.41-1.91-3.38-1.75-5.39,.15-1.92,1.02-3.66,2.39-4.78,1.38-1.13,3.27-1.63,5.18-1.37,1.38,.19,2.65,.75,3.68,1.59l3.39-4.19c.49-.6,1.37-.7,1.98-.21,.17,.14,.3,.31,.39,.49Z"/>
      <path class="cls-2" d="M277.59,.45c.39-.5,1.11-.6,1.61-.21,.5,.39,.6,1.11,.21,1.61-.39,.5-1.11,.6-1.61,.21-.5-.39-.6-1.11-.21-1.61Z"/>
    </g>
    <g>
      <path class="cls-4" d="M166.22,24c.68,0,1.33,.38,1.65,1.04l3.93,8.19c.25,.52,.24,1.12-.02,1.62-.26,.51-.75,.86-1.31,.96-1.48,.26-2.83,1.18-3.72,2.54-.81,1.25-1.1,2.7-.78,3.97,.31,1.27,1.25,2.43,2.56,3.18,1.4,.8,3.07,1.03,4.46,.62,2.84-.85,4.87-4.17,4.44-7.26-.14-1,.55-1.92,1.55-2.06,1.02-.14,1.92,.56,2.06,1.55,.68,4.86-2.46,9.91-7.01,11.27-2.36,.7-5.03,.36-7.31-.94-2.17-1.24-3.73-3.23-4.29-5.47-.56-2.26-.1-4.75,1.27-6.84,.99-1.51,2.35-2.7,3.91-3.43l-3.03-6.31c-.44-.91-.05-2,.86-2.44,.26-.12,.52-.18,.79-.18Z"/>
      <path class="cls-4" d="M162.3,21.65c-.38-.73-.09-1.63,.65-2.01,.73-.38,1.63-.09,2.01,.65,.38,.73,.09,1.63-.65,2.01-.73,.38-1.63,.09-2.01-.65Z"/>
    </g>
    <g>
      <path class="cls-4" d="M301.88,185.8c.68,0,1.33,.38,1.65,1.04l3.93,8.19c.25,.52,.24,1.12-.02,1.62-.26,.51-.75,.86-1.31,.96-1.48,.26-2.83,1.18-3.72,2.54-.81,1.25-1.1,2.7-.78,3.97,.31,1.27,1.25,2.43,2.56,3.18,1.4,.8,3.07,1.03,4.46,.62,2.84-.85,4.87-4.17,4.44-7.26-.14-1,.55-1.92,1.55-2.06,1.02-.14,1.92,.56,2.06,1.55,.68,4.86-2.46,9.91-7.01,11.27-2.36,.7-5.03,.36-7.31-.94-2.17-1.24-3.73-3.23-4.29-5.47-.56-2.25-.1-4.75,1.27-6.84,.99-1.51,2.35-2.7,3.91-3.43l-3.03-6.31c-.44-.91-.05-2,.86-2.44,.26-.12,.52-.18,.79-.18Z"/>
      <path class="cls-4" d="M297.96,183.45c-.38-.73-.09-1.63,.65-2.01s1.63-.09,2.01,.65,.09,1.63-.65,2.01-1.63,.09-2.01-.65Z"/>
    </g>
    <g>
      <path class="cls-9" d="M329.17,238.74s-7.69-5.91-18.9,12.69c-11.21,18.6-15.73,29.46-15.73,29.46,0,0-2.89,3.86-5.48,1.02-2.59-2.84-5.86-10.61-10.68-9.6-5,1.05-7,6.4-6.64,14.5,.36,8.1,.5,25.86,.51,27.47,0,1.58-1.06,3.82-3.13,2.17-2.07-1.65-13.62-16.52-20.35-10.62-6.73,5.9-2.02,28.29-1.55,30.75,.47,2.46-.08,3.45-1.27,3.97-1.19,.52-4.6-4.85-8.06-8.94-3.46-4.09-8.18-8.23-11.78-4.5-3.6,3.73-5.83,20.12,7.93,47.98l7.22,12.49,14.49,.23c31.04-1.4,44.32-11.27,45.85-16.22,1.53-4.95-4.38-7.09-9.63-8.14-5.25-1.05-11.6-1.45-11.72-2.74-.12-1.29,.49-2.25,2.87-3.02,2.38-.78,24.26-7.46,26.18-16.2,1.92-8.74-16.67-11.68-19.12-12.69-2.45-1.02-.99-3.03,.39-3.79,1.41-.77,17.04-9.23,24.3-12.82,7.26-3.59,10.98-7.93,9.49-12.81-1.44-4.71-9.82-3.82-13.56-4.72-3.74-.9-1.75-5.29-1.75-5.29,0,0,7.33-9.2,18.21-28s1.74-22.73,1.74-22.73"/>
      <path class="cls-4" d="M319.1,255.38s-.06,.14-.21,.41c-.16,.28-.37,.67-.65,1.17-.59,1.04-1.44,2.54-2.54,4.47-2.21,3.88-5.44,9.46-9.46,16.35-8.04,13.77-19.31,32.71-31.82,53.58-12.51,20.88-23.82,39.79-31.93,53.52-4.04,6.86-7.31,12.41-9.59,16.27-1.13,1.91-2,3.39-2.61,4.42-.3,.49-.52,.87-.69,1.14-.16,.26-.25,.38-.25,.38,0,0,.06-.14,.21-.41,.15-.28,.37-.67,.65-1.17,.59-1.04,1.44-2.54,2.54-4.46,2.21-3.87,5.44-9.46,9.46-16.34,8.04-13.77,19.31-32.71,31.82-53.59,12.51-20.87,23.82-39.78,31.93-53.51,4.04-6.86,7.31-12.41,9.59-16.27,1.13-1.91,2-3.4,2.61-4.42,.3-.49,.52-.87,.69-1.14,.16-.26,.25-.38,.25-.38Z"/>
      <path class="cls-4" d="M282.52,283.36s.13,.35,.29,1c.16,.65,.37,1.6,.62,2.77,.49,2.35,1.08,5.61,1.67,9.22,.57,3.56,1.08,6.78,1.47,9.24,.18,1.11,.34,2.04,.46,2.8,.11,.66,.16,1.03,.13,1.04-.03,0-.14-.35-.3-1-.16-.65-.37-1.6-.6-2.78-.46-2.35-1.01-5.62-1.6-9.23-.59-3.55-1.13-6.77-1.53-9.23-.19-1.11-.35-2.04-.48-2.8-.11-.66-.15-1.03-.12-1.04Z"/>
      <path class="cls-4" d="M288.46,309.77c-.03-.12,6.64-1.64,14.89-3.38,8.25-1.75,14.96-3.06,14.98-2.94,.03,.12-6.64,1.64-14.89,3.38-8.25,1.75-14.96,3.06-14.98,2.94Z"/>
      <path class="cls-4" d="M267.8,340.96s.38-.02,1.07,.03c.77,.06,1.74,.13,2.89,.22,2.44,.18,5.81,.41,9.53,.53,3.73,.13,7.1,.13,9.55,.11,1.15,0,2.12-.02,2.9-.02,.68,0,1.06,.01,1.06,.04,0,.03-.37,.08-1.06,.13-.68,.05-1.67,.12-2.89,.16-2.45,.1-5.83,.15-9.57,.02-3.74-.12-7.11-.4-9.54-.66-1.22-.14-2.2-.26-2.88-.36-.68-.1-1.05-.17-1.05-.2Z"/>
      <path class="cls-4" d="M257.17,318.25s.21,.29,.51,.85c.33,.65,.75,1.44,1.23,2.38,1.02,2.02,2.4,4.82,3.91,7.92,1.5,3.1,2.84,5.93,3.79,7.98,.43,.96,.8,1.78,1.1,2.44,.25,.58,.38,.91,.35,.92-.03,.01-.21-.29-.51-.85-.33-.65-.75-1.44-1.23-2.38-1.02-2.02-2.4-4.82-3.91-7.92-1.5-3.1-2.84-5.93-3.79-7.98-.43-.96-.8-1.78-1.1-2.44-.25-.58-.38-.91-.35-.92Z"/>
      <path class="cls-4" d="M235.44,343.47s.25,.37,.64,1.09c.41,.79,.95,1.81,1.59,3.04,1.32,2.58,3.12,6.15,5.09,10.11,1.96,3.96,3.72,7.56,4.97,10.17,.59,1.25,1.08,2.3,1.46,3.11,.34,.74,.51,1.15,.48,1.17-.03,.01-.25-.37-.64-1.09-.41-.79-.95-1.81-1.59-3.04-1.32-2.58-3.12-6.15-5.09-10.11-1.96-3.96-3.72-7.56-4.97-10.17-.59-1.25-1.08-2.3-1.46-3.11-.34-.74-.51-1.15-.48-1.17Z"/>
      <path class="cls-4" d="M249.51,371.37s.48-.03,1.35,0c.95,.04,2.18,.08,3.67,.14,3.1,.12,7.38,.26,12.11,.29,4.73,.03,9.02-.05,12.12-.13,1.49-.04,2.73-.07,3.67-.09,.87-.02,1.35-.01,1.35,.02,0,.03-.48,.09-1.34,.16-.87,.07-2.12,.16-3.67,.24-3.1,.16-7.39,.3-12.13,.26-4.74-.03-9.03-.22-12.12-.42-1.55-.1-2.8-.2-3.67-.28-.86-.08-1.34-.14-1.34-.17Z"/>
    </g>
  </g>
  <g id="Floor">
    <path class="cls-10" d="M376.42,403.78c0,.14-81.08,.26-181.07,.26s-181.09-.12-181.09-.26,81.06-.26,181.09-.26,181.07,.12,181.07,.26Z"/>
  </g>
  <g id="Character">
    <g>
      <g>
        <g>
          <path class="cls-5" d="M288.64,341.97l-15.23-72.64s-8.93-35.01-39.66-47.07l-2.12-.65s-2.92-.89-2.96-.91c-1.24-.48-6.28-2.08-7.61-2.49-41.44-14.37-52.44-10.63-95.62,4.11,0,0-19.19,5.16-28.48,30.19-9.3,25.03-27.1,64.17-27.1,64.17l43.08,15.21,8.26-12.27v83.93h118.5l-3.27-38.63-.57-47.59"/>
          <path class="cls-1" d="M168.03,226.76s-.33,.35-.99,.92c-.33,.29-.74,.63-1.24,.98-.5,.36-1.06,.79-1.73,1.19-1.31,.85-2.95,1.71-4.85,2.52-1.91,.77-4.08,1.47-6.41,1.94-2.34,.44-4.61,.62-6.67,.62-2.06-.03-3.91-.21-5.44-.51-.77-.11-1.45-.31-2.05-.45-.6-.13-1.11-.3-1.52-.44-.82-.28-1.27-.44-1.26-.48,.03-.1,1.85,.53,4.89,1,1.52,.25,3.35,.38,5.38,.39,2.03-.03,4.26-.22,6.57-.65,2.3-.46,4.44-1.13,6.33-1.87,1.88-.77,3.52-1.59,4.84-2.39,2.64-1.58,4.09-2.86,4.16-2.77Z"/>
          <g class="cls-7">
            <polygon points="121.2 351.55 130.91 362.77 140.46 362.77 140.46 374.98 239.21 397.82 238.41 388.3 145.5 356.4 129.93 356.4 122.42 350.4 121.2 351.55"/>
          </g>
          <path class="cls-8" d="M150.28,341.56l-8.24-1.53s-19.52-21.35-23.18-21.66c-3.01-.25-19.62-.09-25.41-.02-1.1,.01-1.99,.91-1.99,2.01h0c0,1.08,.85,1.97,1.93,2.01l19.62,.76,.09,1.58-19.65,.26c-2,.15-3.28,3.32,3.12,3.89l16.44,.58v1.02l-16.67,2.33c-.84,.12-3.06,.55-3.08,1.4,0,0-1.01,2.09,3.74,2.68,1.63,.2,16.1-.28,16.1-.28l-.56,1.3-14.98,3.23c-1.09,.24-1.81,1.27-1.66,2.38h0c.16,1.13,1.17,1.93,2.31,1.82l16-1.49,15.7,12.54h21l-.65-14.84Z"/>
          <polyline class="cls-5" points="288.64 341.97 240.72 351.39 235.85 317.31"/>
          <g>
            <path class="cls-5" d="M234.33,343.27l-88.83-2.87v30.7s58.95,11.71,58.95,11.71l41.38,6.61c25.72,0,46.29-23.61,42.31-49.02l-.11,.03-53.7,2.84Z"/>
            <path class="cls-10" d="M258.79,342.7s-.4,.05-1.15,.08c-.82,.02-1.92,.05-3.3,.09-2.94,.05-7.07,.13-12.15,.22-10.26,.15-24.43,.32-40.08,.17-15.66-.15-29.83-.72-40.07-1.41-5.12-.34-9.26-.67-12.11-.96-1.38-.14-2.47-.25-3.29-.34-.75-.08-1.14-.14-1.14-.16,0-.02,.4-.01,1.15,.02,.82,.05,1.91,.12,3.3,.21,2.86,.2,7,.46,12.12,.74,10.24,.57,24.4,1.05,40.05,1.21,15.64,.15,29.81,.05,40.07,.03,5.08,0,9.21,0,12.15,0,1.39,.02,2.49,.03,3.3,.04,.76,.02,1.15,.04,1.15,.06Z"/>
          </g>
          <path class="cls-10" d="M145.5,340.67s.02,.19,.03,.55c0,.39,.02,.92,.03,1.59,.01,1.43,.04,3.47,.06,6.05,.02,5.25,.06,12.72,.1,21.7l-.17-.21c10.03,2.15,22.06,4.81,35,7.53,17.75,3.75,33.9,6.72,45.65,8.53,5.87,.9,10.64,1.56,13.93,2,1.62,.21,2.89,.38,3.79,.5,.41,.06,.74,.11,.99,.14,.22,.04,.33,.06,.33,.07,0,0-.12,0-.34-.01-.25-.02-.58-.05-.99-.09-.9-.1-2.18-.23-3.81-.4-3.3-.37-8.08-.98-13.96-1.84-11.77-1.72-27.95-4.63-45.7-8.39-12.95-2.72-24.97-5.41-34.99-7.61l-.17-.04v-.18c.04-8.98,.06-16.45,.09-21.7,.02-2.58,.04-4.62,.06-6.05,.01-.67,.02-1.2,.03-1.59,.01-.36,.02-.55,.03-.55Z"/>
          <path class="cls-10" d="M137.92,256.7s-.01-.54,.06-1.5c.06-.96,.16-2.35,.19-4.07,.1-3.43-.06-8.2-.93-13.37-.91-5.15-2.06-9.84-3.85-12.75-.87-1.46-1.89-2.43-2.65-2.99-.78-.55-1.27-.76-1.25-.81,0-.02,.13,.03,.37,.12,.24,.09,.58,.26,1,.52,.82,.52,1.91,1.48,2.85,2.96,.95,1.47,1.76,3.4,2.4,5.6,.64,2.2,1.22,4.65,1.65,7.26,.88,5.21,.98,10.02,.78,13.47-.08,1.73-.24,3.12-.36,4.08-.14,.96-.23,1.48-.27,1.48Z"/>
          <path class="cls-10" d="M235.61,229.71c.14,0,.26,20.41,.26,45.58s-.12,45.59-.26,45.59-.26-20.41-.26-45.59,.12-45.58,.26-45.58Z"/>
          <path class="cls-10" d="M266.27,332.24c0,.1-1.51,.05-3.91,.35-1.2,.14-2.62,.41-4.16,.81-1.54,.42-3.2,.99-4.89,1.74-1.68,.77-3.2,1.65-4.53,2.52-1.32,.9-2.46,1.78-3.36,2.59-1.81,1.61-2.77,2.77-2.84,2.71-.03-.02,.19-.33,.62-.86,.42-.54,1.09-1.27,1.97-2.12,.88-.85,2.01-1.78,3.34-2.72,1.34-.91,2.88-1.82,4.59-2.6,1.71-.76,3.41-1.33,4.98-1.73,1.58-.38,3.02-.62,4.24-.71,1.22-.1,2.21-.13,2.9-.08,.68,.03,1.06,.07,1.06,.1Z"/>
          <g class="cls-7">
            <path d="M138.75,336.5c14.97-8.94,24.32-23.75,33.45-38.6,9.13-14.85,17.64-30.45,30.3-42.44,5.82-5.51,12.62-10.15,14.76-17.86l-22.76,18.09-63.4,72.91,7.65,7.9Z"/>
          </g>
          <path class="cls-10" d="M97.65,297.37c.02,.2-3.58,.06-7.67,1.45-2.04,.7-3.79,1.59-5.06,2.23-1.26,.65-2.05,1.06-2.09,1-.03-.06,.68-.58,1.91-1.32,1.23-.73,2.98-1.69,5.07-2.4,2.09-.71,4.08-.98,5.52-1.05,1.44-.06,2.32,.03,2.32,.09Z"/>
          <path class="cls-10" d="M97.65,297.37c.02,.2-3.58,.06-7.67,1.45-2.04,.7-3.79,1.59-5.06,2.23-1.26,.65-2.05,1.06-2.09,1-.03-.06,.68-.58,1.91-1.32,1.23-.73,2.98-1.69,5.07-2.4,2.09-.71,4.08-.98,5.52-1.05,1.44-.06,2.32,.03,2.32,.09Z"/>
          <path class="cls-1" d="M235.23,330.05c-.05,.09-1.08-.91-3.46-1.59-2.35-.73-6.04-.72-10.22,.64-4.24,1.25-8.64,4.25-14.07,6.51-2.71,1.09-5.79,1.95-9.04,1.73-3.25-.16-6.42-1.4-9.44-2.9-3.03-1.51-5.86-3.22-8.73-4.55-2.86-1.35-5.82-2.18-8.7-2.46-5.79-.55-11.05,.79-14.98,2.71-3.99,1.87-6.67,4.35-8.34,6.13-.4,.46-.77,.87-1.09,1.23-.28,.37-.52,.69-.72,.96-.18,.24-.33,.43-.45,.59-.1,.13-.16,.19-.17,.19,0,0,.03-.08,.12-.22,.11-.16,.24-.37,.41-.62,.19-.28,.42-.61,.68-1,.31-.37,.66-.79,1.06-1.26,1.64-1.84,4.31-4.38,8.33-6.32,1.98-1.01,4.3-1.83,6.86-2.37,2.56-.54,5.38-.77,8.32-.49,2.94,.26,5.97,1.11,8.87,2.47,2.91,1.34,5.74,3.05,8.74,4.55,2.99,1.49,6.1,2.69,9.24,2.86,3.14,.22,6.14-.59,8.83-1.66,5.37-2.2,9.82-5.19,14.14-6.42,4.25-1.33,8.02-1.29,10.39-.48,1.19,.37,2.05,.84,2.6,1.19,.25,.17,.44,.32,.61,.43,.13,.1,.2,.15,.2,.16Z"/>
          <path class="cls-1" d="M278.67,293.07c-.02,.07-.62-.3-1.8-.34-1.17-.07-2.89,.35-4.7,1.44-1.85,1.03-3.63,2.91-6.15,4.33-1.25,.69-2.77,1.21-4.38,1.1-1.6-.09-3.15-.72-4.61-1.46-1.47-.74-2.83-1.57-4.24-2.13-1.4-.58-2.83-.96-4.21-1.18-1.38-.23-2.71-.28-3.96-.22-1.24,.05-2.4,.22-3.43,.45-2.07,.46-3.66,1.15-4.72,1.69-1.06,.53-1.61,.91-1.64,.86-.01-.01,.12-.12,.38-.3,.26-.18,.64-.46,1.17-.74,1.04-.6,2.63-1.35,4.73-1.87,1.05-.26,2.22-.46,3.49-.52,1.27-.08,2.64-.05,4.05,.17,1.42,.21,2.88,.59,4.33,1.18,1.46,.57,2.83,1.41,4.28,2.13,1.44,.73,2.91,1.33,4.4,1.42,1.49,.11,2.9-.36,4.12-1.01,2.44-1.33,4.27-3.19,6.19-4.22,1.88-1.08,3.68-1.46,4.9-1.32,.61,.05,1.06,.2,1.36,.32,.29,.13,.44,.21,.43,.23Z"/>
          <path class="cls-1" d="M234.69,279.38s-.24-.02-.68-.12c-.22-.04-.49-.12-.81-.17-.33-.04-.71-.09-1.12-.15-1.69-.19-4.19-.09-7.13,.73-2.94,.82-6.25,2.36-9.74,4.39-3.49,2.02-7.24,4.51-11.61,6.31-2.18,.89-4.41,1.57-6.63,1.82-2.22,.26-4.41,.1-6.4-.44-1.99-.53-3.76-1.35-5.38-2.15-1.62-.8-3.1-1.59-4.48-2.24-2.75-1.33-5.16-1.98-6.86-2.08-.85-.01-1.51-.02-1.96,.06-.45,.05-.69,.06-.69,.04s.23-.07,.67-.15c.44-.11,1.11-.14,1.98-.16,1.73,.03,4.21,.64,7,1.94,1.4,.63,2.9,1.4,4.52,2.18,1.62,.77,3.37,1.57,5.31,2.07,1.93,.51,4.05,.66,6.22,.4,2.17-.24,4.35-.91,6.5-1.79,4.31-1.77,8.04-4.23,11.57-6.24,3.53-2.02,6.9-3.54,9.89-4.33,2.99-.79,5.54-.83,7.25-.57,.42,.07,.79,.14,1.13,.2,.32,.07,.59,.16,.81,.22,.43,.13,.66,.2,.65,.22Z"/>
          <path class="cls-1" d="M265.65,248.62s-.36,.25-1.07,.62c-.71,.37-1.73,.88-3.04,1.45-1.3,.57-2.89,1.19-4.74,1.64-1.83,.46-3.96,.67-6.14,.42-2.18-.23-4.19-.69-6.04-.94-1.84-.27-3.52-.29-4.91-.09-2.81,.38-4.18,1.66-4.22,1.56-.01-.01,.07-.09,.22-.23,.16-.14,.41-.33,.75-.54,.68-.42,1.77-.91,3.19-1.15,1.42-.25,3.15-.27,5.03-.02,1.88,.23,3.9,.68,6.03,.9,4.29,.51,8.09-.86,10.69-1.88,1.31-.52,2.36-.99,3.09-1.3,.73-.31,1.14-.47,1.16-.44Z"/>
          <path class="cls-1" d="M136.35,265.27c-.02,.07-.59-.38-1.77-.43-1.17-.06-2.88,.42-4.58,1.7-.87,.61-1.76,1.37-2.84,2.07-1.07,.71-2.37,1.24-3.79,1.52-2.86,.55-6.08,.02-9.17-1.09-3.1-1.12-5.87-2.54-8.53-3.48-1.32-.48-2.61-.84-3.83-1.05-1.23-.2-2.39-.26-3.44-.21-2.12,.11-3.77,.7-4.79,1.28-1.03,.58-1.51,1.05-1.55,1.01-.01-.01,.1-.13,.33-.35,.23-.22,.6-.52,1.11-.83,1.02-.65,2.7-1.32,4.87-1.47,1.08-.08,2.28-.04,3.54,.15,1.26,.2,2.58,.55,3.92,1.02,2.7,.92,5.49,2.34,8.54,3.44,3.03,1.09,6.17,1.61,8.91,1.11,1.36-.25,2.6-.74,3.64-1.41,1.05-.66,1.96-1.4,2.86-2.01,1.76-1.27,3.59-1.73,4.8-1.6,.61,.05,1.07,.22,1.35,.36,.29,.14,.41,.25,.41,.26Z"/>
          <path class="cls-1" d="M192.69,341.86s.12,.08,.32,.28c.21,.19,.47,.5,.79,.92,.61,.85,1.36,2.25,1.63,4.14,.27,1.86,.06,4.28-1.33,6.44-1.33,2.15-3.59,3.86-4.87,6.33-.61,1.24-.76,2.61-.5,3.89,.25,1.28,.77,2.47,1.3,3.57,1.09,2.18,2.1,4.3,2.06,6.26-.03,1.96-1.01,3.37-1.87,3.99-.43,.32-.84,.46-1.1,.53-.28,.05-.42,.06-.42,.05-.02-.06,.6-.09,1.4-.74,.77-.63,1.65-2,1.63-3.83,0-1.84-1-3.86-2.13-6.05-.55-1.11-1.1-2.32-1.37-3.69-.29-1.36-.13-2.89,.53-4.22,.66-1.32,1.61-2.4,2.5-3.4,.9-1,1.77-1.95,2.43-2.97,1.34-2.03,1.59-4.33,1.37-6.13-.22-1.83-.89-3.21-1.44-4.08-.56-.87-.98-1.28-.94-1.31Z"/>
          <path class="cls-1" d="M234.61,385.77s-.14-.1-.38-.33c-.22-.24-.53-.63-.77-1.2-.53-1.14-.6-3.09,.25-5.16,.41-1.03,1.07-2.1,1.94-3.07,.85-.99,1.86-1.94,2.87-2.96,1.01-1.02,2.03-2.14,2.78-3.49,.75-1.34,1.17-2.91,1.34-4.55,.33-3.29-.26-6.46-.43-9.36-.21-2.9,.04-5.62,.97-7.66,.89-2.05,2.22-3.39,3.29-4.02,.53-.33,.98-.51,1.29-.61,.31-.09,.48-.13,.48-.11,.02,.06-.66,.21-1.66,.89-1,.67-2.24,1.99-3.06,4-.85,1.99-1.06,4.62-.83,7.49,.19,2.87,.81,6.05,.47,9.45-.17,1.69-.61,3.33-1.41,4.74-.79,1.41-1.86,2.56-2.88,3.58-2.07,2.03-4.02,3.8-4.81,5.84-.86,1.98-.85,3.83-.4,4.95,.43,1.13,1.02,1.56,.96,1.6Z"/>
          <path class="cls-1" d="M239.74,399.03s-.35,.3-1.11,.7c-.76,.41-1.98,.88-3.63,1.04-1.64,.17-3.69,0-5.94-.67-2.26-.63-4.66-1.85-7.19-3.32-2.54-1.44-5.27-3.17-8.51-4.26-3.23-1.09-6.98-1.18-10.73-.37-3.77,.78-7.53,2.33-11.42,3.95-3.88,1.6-7.92,3.37-12.35,4.26-2.21,.46-4.46,.6-6.66,.37-2.2-.21-4.31-.89-6.21-1.84-3.83-1.91-6.88-4.68-10-6.94-1.56-1.13-3.12-2.19-4.75-2.97-.41-.2-.82-.39-1.22-.58-.41-.18-.83-.31-1.25-.47-.82-.33-1.67-.52-2.49-.74-3.32-.81-6.56-.79-9.43-.38-2.88,.42-5.41,1.24-7.49,2.24-.53,.23-1.01,.53-1.48,.77-.48,.24-.92,.51-1.33,.79-.41,.27-.82,.52-1.19,.78-.35,.28-.69,.54-1.01,.8-.66,.48-1.16,1.01-1.62,1.43-.47,.42-.82,.82-1.1,1.14-.27,.3-.49,.54-.66,.73-.15,.16-.23,.24-.24,.24,0,0,.06-.1,.2-.27,.16-.19,.36-.45,.62-.76,.27-.34,.61-.75,1.07-1.18,.46-.44,.95-.98,1.6-1.48,.32-.26,.66-.53,1.01-.82,.37-.27,.77-.53,1.19-.81,.41-.29,.85-.57,1.33-.82,.48-.25,.96-.56,1.49-.8,2.1-1.04,4.65-1.88,7.57-2.34,2.91-.44,6.2-.48,9.59,.33,.84,.22,1.71,.41,2.54,.74,.42,.16,.85,.29,1.27,.47,.41,.19,.83,.39,1.25,.59,1.67,.8,3.26,1.86,4.83,3,3.15,2.26,6.2,5.01,9.94,6.87,1.86,.92,3.9,1.58,6.04,1.78,2.13,.21,4.33,.08,6.5-.37,4.35-.88,8.37-2.62,12.26-4.22,3.89-1.61,7.68-3.16,11.51-3.95,3.81-.82,7.66-.71,10.97,.43,3.3,1.13,6.03,2.89,8.56,4.35,2.51,1.49,4.86,2.71,7.09,3.36,2.21,.68,4.22,.88,5.84,.74,1.62-.12,2.83-.56,3.6-.93,.77-.37,1.14-.64,1.16-.61Z"/>
        </g>
        <g>
          <path class="cls-8" d="M184.11,232.23h0c11.16,.55,20.76-7.82,21.74-18.95,.58-6.6,1.04-12.24,1.04-12.24,0,0,17.04-.43,19.41-17.1,2.37-16.67,4.45-55.39,4.45-55.39h0c-18.25-10.81-40.93-10.9-59.27-.23l-2.72,1.58-4.39,80.43c-.63,11.51,8.23,21.33,19.74,21.9Z"/>
          <path class="cls-10" d="M209.24,172.41c0-.18,1.47-.28,3.82-.31,.61,.01,1.1-.06,1.19-.38,.16-.35,0-1.02-.21-1.78-.39-1.6-.79-3.22-1.21-4.91-1.65-6.98-2.7-12.71-2.34-12.8,.35-.08,1.98,5.51,3.63,12.49,.38,1.7,.75,3.33,1.11,4.93,.13,.72,.44,1.59,0,2.54-.23,.48-.75,.77-1.16,.83-.41,.07-.75,.03-1.04,0-2.34-.22-3.79-.44-3.78-.63Z"/>
          <path class="cls-6" d="M206.94,200.8s-10.66-.51-20.97-9.01c0,0,3.59,12.69,20.45,13.34l.52-4.33Z"/>
          <path class="cls-10" d="M230.55,132.79s-10.5,4.39-23.45-2.99c-8.5-4.84-18.56-7.53-20.9-5.9-2.34,1.63-3.31,10.61-12.11,12.76,0,0-.35,17.21-7.17,16.22-6.81-.99-1.07-27.36-1.07-27.36l17.2-7.26,18.47-2.45,17.09,3.38,13.13,4.39-1.19,9.21Z"/>
          <g>
            <path class="cls-8" d="M168.57,147.46c-.27-.16-11.03-4.88-12.15,6.58-1.12,11.46,10.62,10.22,10.68,9.89,.05-.33,1.47-16.47,1.47-16.47Z"/>
            <path class="cls-6" d="M164.02,159.25s-.21,.12-.57,.24c-.34,.12-.92,.17-1.5-.11-1.17-.56-2-2.58-1.85-4.66,.07-1.05,.39-2.02,.84-2.81,.43-.8,1.03-1.34,1.65-1.39,.62-.08,1.02,.33,1.13,.66,.12,.34,.03,.56,.09,.58,.03,.03,.26-.17,.22-.65-.03-.23-.13-.52-.38-.76-.25-.25-.65-.4-1.08-.4-.89-.03-1.76,.71-2.26,1.57-.54,.86-.92,1.95-1,3.13-.15,2.32,.82,4.59,2.43,5.23,.79,.29,1.48,.11,1.86-.13,.38-.25,.47-.5,.43-.52Z"/>
          </g>
          <path class="cls-10" d="M181.69,125.74c-2.34,2.5-4.72,5.02-7.63,6.83-2.91,1.81-6.46,2.84-9.79,2.07-3.34-.77-6.28-3.66-6.42-7.08-.14-3.42,3.21-6.76,6.55-6.03-2.27,.04-4.17-2.53-3.46-4.69,.71-2.16,3.76-3.1,5.56-1.72-2.9-.54-3.23-5.15-.92-6.99,2.31-1.84,5.71-1.44,8.44-.33,2.74,1.11,5.25,2.83,8.14,3.45,4.53,.97,9.18-.91,13.19-3.24,4.01-2.33,7.82-5.18,12.28-6.41,5.48-1.52,11.41-.41,16.65,1.79,4.35,1.83,8.48,4.47,11.31,8.25,2.83,3.78,4.23,8.8,2.97,13.35-1.26,4.55-5.49,8.33-10.22,8.35,0,0-10.61,1.07-19.25-5.34-8.64-6.41-26.85-5.56-26.85-5.56l-.57,3.29Z"/>
          <path class="cls-3" d="M165.72,112.39s.21,.22,.66,.53c.45,.32,1.15,.74,2.06,1.26,1.83,1.02,4.62,2.3,8.27,3.29,3.63,.98,8.15,1.61,13.15,1.25,5.02-.33,10.29-1.95,15.78-3.29,5.47-1.35,10.91-2.02,15.6-.86,4.69,1.08,8.39,3.92,10.01,7.13,1.65,3.24,1.45,6.41,.87,8.32-.6,1.96-1.43,2.83-1.32,2.9,.03,.03,.24-.18,.6-.6,.32-.45,.81-1.14,1.17-2.15,.76-1.96,1.13-5.32-.54-8.86-1.66-3.53-5.58-6.64-10.52-7.85-4.96-1.28-10.62-.6-16.16,.77-5.56,1.36-10.72,2.98-15.58,3.36-4.85,.41-9.27-.11-12.85-.97-7.21-1.75-11.09-4.48-11.2-4.24Z"/>
          <path class="cls-3" d="M160.57,130.1c-.13,.07,.24,1.19,1.48,2.61,1.21,1.41,3.41,3.04,6.27,3.67,2.86,.62,5.54,.04,7.23-.75,1.71-.78,2.52-1.65,2.43-1.76-.11-.16-1.07,.43-2.74,.95-1.65,.53-4.09,.91-6.66,.36-2.57-.56-4.63-1.91-5.91-3.08-1.3-1.17-1.93-2.1-2.1-2Z"/>
          <path class="cls-3" d="M164.15,124.44c-.29,.14,.59,2.22,2.81,3.74,2.21,1.54,4.47,1.63,4.49,1.31,.07-.35-1.84-.94-3.8-2.32-1.98-1.34-3.2-2.92-3.51-2.74Z"/>
          <path class="cls-10" d="M236.18,140.43c.15,.04,.48-.53,.56-1.56,.09-1.01-.13-2.5-1.01-3.85-.88-1.35-2.15-2.16-3.11-2.49-.97-.34-1.62-.27-1.65-.12-.1,.33,2.26,.99,3.73,3.27,1.49,2.27,1.14,4.69,1.48,4.74Z"/>
          <path class="cls-3" d="M242.12,123.99c-.34-.14-1.6,2.9-4.6,5.4-2.95,2.56-6.15,3.32-6.06,3.67-.01,.32,3.61,.05,6.86-2.74,3.28-2.76,4.12-6.29,3.81-6.33Z"/>
          <g>
            <path class="cls-10" d="M224.74,153.95c-.13,1.36-1.38,2.37-2.8,2.26-1.42-.11-2.46-1.29-2.34-2.65,.13-1.36,1.38-2.37,2.8-2.26,1.42,.11,2.47,1.3,2.34,2.65Z"/>
            <path class="cls-10" d="M226.77,153.72c-.36,.29-2.11-1.39-4.87-1.75-2.75-.39-4.95,.76-5.21,.39-.13-.17,.27-.73,1.24-1.25,.95-.52,2.51-.95,4.22-.72,1.71,.23,3.07,1.05,3.82,1.81,.76,.76,.97,1.4,.79,1.53Z"/>
          </g>
          <g>
            <path class="cls-10" d="M199.69,150.47c-.13,1.36-1.38,2.37-2.8,2.26-1.42-.11-2.46-1.29-2.34-2.65,.13-1.36,1.38-2.37,2.8-2.26,1.42,.11,2.47,1.3,2.34,2.65Z"/>
            <path class="cls-10" d="M201.48,150.4c-.36,.29-2.11-1.4-4.87-1.75-2.75-.39-4.95,.76-5.21,.39-.13-.17,.27-.73,1.24-1.25,.95-.52,2.51-.95,4.22-.72,1.71,.23,3.07,1.05,3.82,1.81,.76,.76,.97,1.4,.79,1.53Z"/>
          </g>
          <path class="cls-10" d="M200.42,142.83c-.54,.48-2.61-1.02-5.39-1.28-2.78-.33-5.11,.71-5.54,.12-.2-.28,.17-.99,1.19-1.67,1-.68,2.71-1.24,4.62-1.04,1.91,.2,3.46,1.11,4.3,1.99,.86,.88,1.07,1.65,.82,1.89Z"/>
          <path class="cls-10" d="M226.59,147.39c.12,.33-.35,.87-1.36,1.31-.99,.44-2.52,.69-4.17,.44-1.65-.26-3.02-.97-3.83-1.69-.82-.72-1.1-1.39-.89-1.66,.48-.56,2.53,.41,5.13,.78,2.59,.44,4.84,.15,5.12,.83Z"/>
          <path class="cls-10" d="M207.13,176.99c.29,.02,.49,.54,.45,1.16-.04,.62-.3,1.11-.59,1.09-.29-.02-.49-.54-.45-1.16,.04-.62,.3-1.11,.59-1.09Z"/>
          <path class="cls-3" d="M166.53,168.29s-.01,.27-.25,.67c-.23,.4-.69,.94-1.45,1.32-.74,.39-1.84,.58-2.92,.17-1.06-.38-2.07-1.3-2.51-2.55-.42-1.26-.19-2.58,.35-3.56,.54-1,1.4-1.63,2.16-1.96,.77-.34,1.46-.41,1.91-.4,.46,0,.71,.08,.71,.11,0,.1-1.05-.07-2.46,.62-.69,.35-1.44,.95-1.9,1.85-.46,.89-.65,2.07-.28,3.17,.37,1.09,1.26,1.91,2.18,2.27,.94,.38,1.89,.25,2.59-.06,1.44-.65,1.78-1.73,1.86-1.66Z"/>
        </g>
      </g>
      <g>
        <g>
          <path class="cls-8" d="M177.6,236.78s5.58-7.88,9.08-12.31c4.25-5.36,6.78-9.99,6.78-12.49v-13.28s5.29-1.25,6.04,4.76c.76,6.01,0,7.52,0,7.52,0,0,22.2-14.95,23.71-13.87,2.65,1.91-2.37,5.9-2.37,5.9l-13.53,12.23,7.71-2.44c1.87-.59,3.88,.42,4.51,2.27h0c.52,1.52-.04,3.2-1.38,4.11l-4.56,3.95,2.3-.92c1.7-.68,3.64,.05,4.46,1.68h0c.66,1.31,.43,2.89-.57,3.96l-4.16,4.43,1.95-1.04c1.26-.67,2.82-.17,3.45,1.09h0c.53,1.06,.24,2.35-.69,3.09l-24.86,19.65-17.88-18.29Z"/>
          <path class="cls-6" d="M195.48,255.07s-.1-.09-.31-.29c-.22-.22-.52-.52-.91-.91-.82-.82-2-2.01-3.53-3.55-3.1-3.14-7.6-7.7-13.25-13.42l-.1-.1,.08-.11c1.63-2.3,3.39-4.77,5.31-7.38,.96-1.3,1.96-2.64,3-4,1.06-1.36,2.14-2.73,3.16-4.21,1.03-1.48,2.02-3.03,2.87-4.7,.83-1.68,1.61-3.45,1.42-5.43,0-3.94,0-8.04-.01-12.26v-.2s.19-.03,.19-.03c1.35-.25,2.8-.1,4.01,.66,.6,.39,1.07,.94,1.46,1.53,.33,.62,.59,1.29,.73,1.98,.27,1.38,.36,2.74,.45,4.15,.04,.7,.05,1.41,.02,2.12-.05,.72-.06,1.4-.34,2.18l-.37-.32c3.43-2.3,6.98-4.63,10.65-6.95,1.84-1.16,3.7-2.32,5.61-3.45,1.92-1.12,3.83-2.26,5.93-3.18,.28-.11,.56-.22,.86-.31,.15-.04,.3-.08,.48-.09,.09,0,.19,0,.3,.02,.16,.06,.22,.12,.27,.17,.54,.36,.85,1.12,.75,1.76-.19,1.3-1.01,2.25-1.78,3.11-.81,.87-1.73,1.58-2.55,2.36-.85,.77-1.69,1.53-2.53,2.29-3.36,3.04-6.66,6.01-9.87,8.92l-.25-.43c1.52-.48,3.02-.95,4.51-1.43,.74-.24,1.49-.47,2.22-.7,.37-.11,.73-.24,1.11-.34,.39-.11,.81-.16,1.21-.14,1.65,.05,3.13,1.28,3.53,2.83,.44,1.55-.24,3.29-1.54,4.15l.02-.02c-1.55,1.34-3.07,2.66-4.57,3.95l-.24-.39c.75-.3,1.5-.6,2.23-.89,.77-.32,1.66-.38,2.46-.16,1.62,.43,2.79,2.01,2.74,3.63,0,.8-.28,1.58-.76,2.2-.5,.6-1,1.09-1.5,1.63-.99,1.05-1.96,2.08-2.91,3.09l-.24-.32c.7-.37,1.4-.74,2.09-1.1,.76-.36,1.66-.32,2.38,.05,.73,.36,1.25,1.07,1.41,1.85,.16,.78-.04,1.6-.51,2.21-.24,.31-.55,.53-.82,.75-.28,.22-.56,.44-.83,.65-.55,.43-1.09,.86-1.62,1.28-1.07,.84-2.1,1.65-3.1,2.43-3.99,3.13-7.44,5.83-10.27,8.05-2.81,2.19-5,3.9-6.51,5.08-.73,.57-1.3,1-1.69,1.31-.38,.29-.58,.43-.58,.43,0,0,.2-.18,.58-.49,.4-.32,.96-.78,1.69-1.37,1.5-1.2,3.68-2.95,6.47-5.18,2.8-2.24,6.21-4.96,10.16-8.11,.99-.79,2.01-1.6,3.06-2.44,.53-.42,1.06-.84,1.6-1.28,.27-.22,.54-.43,.82-.65,.28-.22,.55-.42,.75-.69,.41-.52,.58-1.24,.43-1.9-.14-.66-.59-1.27-1.22-1.58-.62-.32-1.4-.35-2.04-.04-.68,.36-1.37,.73-2.07,1.1l-1.07,.57,.83-.88c.95-1.01,1.91-2.05,2.9-3.1,.48-.53,1.02-1.06,1.47-1.6,.42-.55,.66-1.24,.67-1.95,.04-1.42-.99-2.82-2.42-3.19-.71-.19-1.48-.14-2.17,.15-.74,.3-1.48,.6-2.23,.9l-1.28,.51,1.04-.9c1.49-1.29,3.01-2.61,4.56-3.96h.01s.01-.02,.01-.02c1.14-.76,1.73-2.28,1.34-3.63-.35-1.36-1.65-2.43-3.09-2.47-.71-.06-1.4,.23-2.15,.46-.74,.23-1.48,.47-2.22,.7-1.49,.47-2.99,.95-4.51,1.43l-1.11,.35,.86-.78c3.21-2.91,6.51-5.89,9.87-8.93,.84-.76,1.69-1.52,2.54-2.29,.84-.79,1.74-1.49,2.51-2.32,.75-.82,1.5-1.77,1.64-2.81,.06-.51-.12-1-.56-1.3-.06-.15-.32-.07-.59,0-.26,.07-.53,.18-.8,.29-2.03,.89-3.96,2.03-5.86,3.14-1.9,1.13-3.76,2.28-5.6,3.44-3.67,2.32-7.22,4.64-10.65,6.93l-.64,.43,.27-.75c.2-.56,.26-1.31,.29-1.98,.03-.69,.02-1.38-.02-2.07-.08-1.37-.18-2.77-.43-4.07-.13-.65-.37-1.26-.67-1.83-.35-.54-.77-1.03-1.3-1.37-1.06-.68-2.43-.83-3.64-.6l.19-.23c0,4.23,0,8.32-.01,12.26,0,.5,.02,.97-.03,1.49-.06,.5-.17,.99-.32,1.46-.3,.94-.7,1.82-1.13,2.67-.87,1.7-1.88,3.26-2.92,4.74-1.03,1.49-2.14,2.87-3.19,4.22-1.05,1.35-2.05,2.68-3.01,3.98-1.93,2.6-3.71,5.06-5.34,7.35l-.02-.21c5.56,5.75,10,10.32,13.05,13.48,1.51,1.57,2.69,2.79,3.5,3.64,.39,.41,.69,.72,.9,.95,.2,.22,.31,.34,.31,.34Z"/>
        </g>
        <path class="cls-5" d="M195.48,255.07l-68.14,89.96c-10.34,13.65-28.98,18.65-44.47,11.24-11.32-5.42-19.62-16.8-12.68-40.22l65.27-44.66,39.67-38.29,20.34,21.97Z"/>
        <path class="cls-10" d="M82.88,356.26s.25,.12,.74,.37c.49,.26,1.2,.64,2.13,1.13,1.95,.81,4.88,2.02,8.91,2.39,2,.15,4.25,.23,6.67-.12,1.22-.1,2.46-.41,3.76-.66,.65-.15,1.29-.36,1.95-.54,.67-.17,1.33-.4,2-.66,2.69-.95,5.47-2.26,8.19-4.02,2.72-1.74,5.4-3.92,7.68-6.71,4.65-5.5,9.46-11.78,14.65-18.49,5.18-6.71,10.66-13.94,16.42-21.54,11.5-15.22,24.07-32.01,37.2-49.68,.7-.94,1.4-1.88,2.09-2.82l.02,.33c-6.97-7.54-13.78-14.89-20.33-21.98l.35,.02c-13.89,11.46-26.74,22.41-38.4,32.16-11.64,9.76-22.08,18.33-30.91,25.31-8.82,6.99-15.99,12.43-20.99,16.08-2.48,1.85-4.45,3.21-5.76,4.16-.65,.46-1.15,.81-1.5,1.06-.34,.24-.52,.35-.52,.35,0,0,.16-.14,.49-.39,.34-.26,.83-.62,1.47-1.1,1.29-.97,3.24-2.36,5.7-4.23,4.96-3.69,12.1-9.17,20.89-16.19,8.79-7.02,19.2-15.61,30.83-25.39,11.63-9.77,24.47-20.73,38.36-32.21l.19-.15,.16,.18c6.56,7.08,13.37,14.44,20.34,21.97l.15,.16-.13,.17c-.69,.94-1.39,1.88-2.09,2.82-13.14,17.67-25.72,34.45-37.24,49.66-5.77,7.6-11.26,14.81-16.46,21.52-5.21,6.7-10.03,12.96-14.71,18.46-2.31,2.81-5.03,5-7.78,6.75-2.75,1.76-5.56,3.07-8.27,4.02-.67,.25-1.34,.48-2.02,.65-.67,.18-1.32,.39-1.97,.53-1.31,.25-2.57,.55-3.8,.65-2.44,.33-4.71,.25-6.72,.08-4.05-.41-6.99-1.65-8.93-2.49-.94-.5-1.64-.91-2.11-1.18-.47-.27-.71-.42-.71-.42Z"/>
        <path class="cls-1" d="M134.54,332.83c-.04,.06-.77-.64-2.38-1.37-1.6-.74-4.18-1.25-7.33-.92-1.57,.15-3.27,.51-5.05,1.05-1.78,.54-3.63,1.3-5.59,2.07-1.96,.77-4.03,1.59-6.26,2.19-2.23,.59-4.65,.95-7.11,.69-2.46-.26-4.76-1.03-6.88-1.91-2.13-.88-4.1-1.89-6.01-2.75-3.79-1.77-7.48-2.91-10.64-2.73-3.16,.14-5.56,1.36-6.88,2.5-1.35,1.15-1.76,2.09-1.82,2.05-.02,0,.1-.23,.34-.64,.27-.39,.67-.97,1.35-1.57,1.31-1.21,3.75-2.52,6.99-2.71,3.25-.23,7.03,.91,10.85,2.66,1.93,.86,3.9,1.85,6.01,2.72,2.1,.87,4.36,1.61,6.74,1.86,2.38,.25,4.74-.09,6.93-.67,2.2-.58,4.25-1.38,6.21-2.14,1.96-.76,3.82-1.51,5.64-2.04,1.81-.53,3.54-.87,5.14-1.01,3.21-.29,5.84,.29,7.44,1.11,1.62,.8,2.3,1.55,2.3,1.55Z"/>
        <path class="cls-1" d="M158.62,302.67c-.08-.02,.4-.6,.26-1.78-.15-1.13-1.07-2.8-3.01-3.66-.95-.44-2.08-.73-3.31-1.01-1.22-.28-2.57-.61-3.87-1.24-2.63-1.22-5.05-3.33-7.29-5.71-2.25-2.39-4.25-4.78-6.39-6.61-2.11-1.85-4.36-3.1-6.41-3.66-2.04-.58-3.8-.56-4.96-.34-1.17,.21-1.78,.5-1.8,.45,0-.02,.14-.09,.43-.22,.29-.13,.73-.3,1.33-.42,1.17-.29,2.99-.37,5.09,.18,2.11,.52,4.46,1.78,6.62,3.65,2.19,1.85,4.22,4.25,6.45,6.62,2.23,2.37,4.59,4.43,7.12,5.64,2.5,1.24,5.16,1.33,7.13,2.35,2.03,.96,2.95,2.76,3.05,3.97,.05,.62-.07,1.1-.21,1.39-.14,.29-.24,.42-.25,.42Z"/>
      </g>
    </g>
  </g>
  <g id="Question_Marks" data-name="Question Marks">
    <g>
      <path class="cls-10" d="M216.71,54.33s-.03,0-.04,0c-.83-.02-1.48-.71-1.46-1.54l.34-13.35c.01-.47,.24-.91,.63-1.18,.38-.27,.87-.35,1.32-.21,2.42,.75,5.15,.41,7.5-.94,2.18-1.25,3.73-3.23,4.25-5.43,.51-2.19,.01-4.66-1.38-6.79-1.49-2.28-3.75-3.85-6.19-4.3-4.91-.91-10.3,2.36-12.01,7.3-.27,.78-1.13,1.2-1.91,.93-.78-.27-1.2-1.13-.93-1.91,2.18-6.28,9.08-10.43,15.39-9.27,3.24,.6,6.21,2.65,8.15,5.61,1.83,2.81,2.49,6.13,1.79,9.11-.7,3.01-2.77,5.68-5.68,7.35-2.48,1.42-5.3,1.97-7.98,1.62l-.29,11.54c-.02,.82-.69,1.46-1.5,1.46Z"/>
      <path class="cls-10" d="M219.03,60.92c0,1.21-.98,2.19-2.19,2.19s-2.19-.98-2.19-2.19,.98-2.19,2.19-2.19,2.19,.98,2.19,2.19Z"/>
    </g>
    <g>
      <path class="cls-10" d="M52.57,208.24c-2.25,0-4.47-.65-6.26-1.99-2.1-1.58-3.5-4.08-3.83-6.88-.32-2.65,.4-5.25,1.95-7.13,1.57-1.9,4-3.08,6.65-3.24,2.12-.13,4.2,.39,5.93,1.46l3.95-7.49c.39-.73,1.29-1.01,2.03-.63,.73,.39,1.01,1.29,.63,2.03l-4.78,9.06c-.22,.42-.62,.7-1.08,.78-.46,.08-.94-.07-1.28-.39-1.34-1.27-3.23-1.93-5.21-1.81-1.83,.11-3.48,.9-4.52,2.16-1.04,1.26-1.51,3.03-1.29,4.87,.24,1.98,1.2,3.74,2.65,4.83,2.88,2.16,7.59,1.75,10.28-.9,.59-.58,1.54-.57,2.12,.02,.58,.59,.57,1.54-.02,2.12-2.11,2.07-5.04,3.15-7.93,3.15Z"/>
      <path class="cls-10" d="M63.46,177.31c.41-.83,1.42-1.17,2.26-.76,.83,.41,1.17,1.42,.76,2.26-.41,.83-1.42,1.17-2.25,.76-.83-.41-1.17-1.42-.76-2.26Z"/>
    </g>
    <g>
      <path class="cls-10" d="M355.3,183c-.46,0-.92-.22-1.22-.62l-6-8.3c-.28-.38-.36-.87-.22-1.32,.14-.45,.48-.81,.92-.97,1.73-.63,3.17-2.04,3.94-3.87,.71-1.69,.74-3.51,.07-5.01-.67-1.49-2.05-2.69-3.79-3.31-1.88-.67-3.89-.58-5.5,.23-3.21,1.63-4.93,6.03-3.76,9.62,.26,.79-.17,1.63-.96,1.89-.79,.26-1.63-.17-1.89-.96-1.64-5,.71-10.94,5.25-13.23,2.34-1.18,5.21-1.32,7.86-.38,2.51,.89,4.53,2.68,5.53,4.91,1.01,2.25,.99,4.95-.04,7.4-.83,1.96-2.21,3.59-3.93,4.67l4.96,6.87c.49,.67,.33,1.61-.34,2.09-.27,.19-.57,.28-.88,.28Z"/>
      <path class="cls-10" d="M360.49,185.36c.56,.74,.42,1.8-.32,2.36-.74,.56-1.79,.42-2.36-.32-.56-.74-.42-1.8,.32-2.36,.74-.56,1.8-.42,2.36,.32Z"/>
    </g>
  </g>
</svg>