<?xml version="1.0" encoding="UTF-8"?>
<svg xmlns="http://www.w3.org/2000/svg" viewBox="0 0 655.61 382.87">
  <defs>
    <style>
      .cls-1 {
        fill: #fff;
      }

      .cls-2 {
        fill: #fafafa;
      }

      .cls-3 {
        opacity: .6;
      }

      .cls-4 {
        fill: #f5f5f5;
      }

      .cls-5 {
        fill: #455a64;
      }

      .cls-6 {
        opacity: .2;
      }

      .cls-7 {
        fill: #e0e0e0;
      }

      .cls-8 {
        fill: #e8505b;
      }

      .cls-9 {
        opacity: .8;
      }

      .cls-10 {
        opacity: .4;
      }

      .cls-11 {
        fill: #eb996e;
      }

      .cls-12 {
        opacity: .3;
      }

      .cls-13 {
        fill: #ffbe9d;
      }

      .cls-14 {
        fill: #ebebeb;
      }

      .cls-15 {
        fill: #263238;
      }
    </style>
  </defs>
  <g id="Background_Complete" data-name="Background Complete">
    <path class="cls-4" d="M126.3,366.66c.45-3.24-4.13-5.91-7.56-6.18-1.64-.13-3.34,.12-4.89-.42-3.36-1.17-4.71-5.52-7.99-6.9-2.45-1.03-5.28-.11-7.66,1.08s-4.73,2.7-7.39,2.87c-2.31,.15-4.82-.71-6.84,.42-1.51,.84-2.3,2.58-3.69,3.6-1.36,1-3.13,1.21-4.82,1.31-1.69,.09-3.43,.11-4.97,.81-1.54,.7-2.81,2.33-2.49,3.99l58.3-.58Z"/>
    <path class="cls-4" d="M595.58,80.27c.73-5.33-6.79-9.72-12.44-10.17-2.7-.22-5.5,.19-8.05-.7-5.53-1.93-7.74-9.08-13.14-11.36-4.04-1.7-8.68-.19-12.6,1.78-3.91,1.97-7.78,4.45-12.15,4.73-3.8,.24-7.93-1.17-11.26,.69-2.48,1.38-3.78,4.24-6.06,5.93-2.24,1.65-5.15,2-7.93,2.15-2.77,.15-5.65,.18-8.17,1.34-2.53,1.16-4.62,3.83-4.09,6.56l95.91-.95Z"/>
    <g>
      <path class="cls-4" d="M41.08,213.62l24.12-3.69c2.02,13.23-7.2,25.79-20.44,27.81-13.23,2.02-25.79-7.2-27.81-20.44-2.02-13.23,7.2-25.79,20.44-27.81,2.11-.32,4.25-.37,6.37-.13l-2.68,24.25Z"/>
      <path class="cls-7" d="M48.9,189.44l-2.93,18.7,18.35-3.45s-2.7-10.48-15.43-15.25Z"/>
    </g>
    <g>
      <path class="cls-14" d="M500.06,285.53c2.14,.04,4.24,.37,6.25,.96l4.07-4.22,8.3,5.03-1.86,5.56c1.45,1.51,2.72,3.22,3.74,5.1l5.86-.1,2.31,9.42-5.24,2.62c-.04,2.14-.37,4.24-.96,6.25l4.22,4.07-5.03,8.3-5.56-1.86c-1.51,1.45-3.22,2.72-5.1,3.74l.1,5.86-9.42,2.31-2.62-5.24c-2.14-.04-4.24-.37-6.25-.96l-4.07,4.22-8.3-5.03,1.86-5.56c-1.45-1.51-2.72-3.22-3.74-5.1l-5.86,.1-2.31-9.42,5.24-2.62c.04-2.14,.37-4.24,.96-6.25l-4.22-4.07,5.03-8.3,5.56,1.86c1.51-1.45,3.22-2.72,5.1-3.74l-.1-5.86,9.42-2.31,2.62,5.25h0Zm-2.52,13.69c-5.58,1.37-9,7-7.63,12.59,1.37,5.58,7,9,12.59,7.63,5.58-1.37,9-7,7.63-12.59-1.37-5.58-7-9-12.59-7.63Z"/>
      <path class="cls-14" d="M497.54,299.22s.87-.36,2.55-.4c1.64-.04,4.21,.38,6.6,2.26,1.17,.94,2.29,2.22,3.03,3.85,.72,1.62,1.15,3.55,.91,5.55-.09,1-.35,2.01-.76,2.98-.39,.97-.95,1.91-1.66,2.74-1.38,1.7-3.4,2.96-5.64,3.53-2.26,.53-4.63,.34-6.64-.52-1.01-.41-1.94-.98-2.74-1.66-.81-.67-1.51-1.44-2.05-2.29-1.13-1.67-1.65-3.57-1.75-5.34-.1-1.78,.3-3.44,.91-4.81,1.25-2.78,3.33-4.34,4.81-5.06,1.51-.73,2.44-.82,2.44-.82,.02,.07-.9,.24-2.34,1.02-1.41,.77-3.38,2.33-4.53,5.02-.56,1.33-.92,2.92-.8,4.62,.13,1.68,.63,3.49,1.72,5.06,.52,.8,1.19,1.53,1.95,2.16,.76,.64,1.64,1.18,2.6,1.56,1.91,.81,4.14,.99,6.28,.48,2.13-.54,4.02-1.73,5.34-3.33,.67-.78,1.21-1.67,1.58-2.59,.39-.91,.65-1.87,.74-2.81,.24-1.9-.15-3.73-.82-5.28-.68-1.56-1.73-2.8-2.84-3.72-2.26-1.85-4.73-2.33-6.34-2.36-1.64-.03-2.53,.25-2.54,.17Z"/>
    </g>
    <g>
      <path class="cls-14" d="M267.75,317.7c-.06,0-.13-.67-.22-1.93-.03-.63-.09-1.41-.26-2.32-.14-.91-.27-1.97-.61-3.12-.51-2.33-1.57-5.1-3.24-8.03-1.69-2.92-4.13-5.98-7.46-8.6-3.33-2.59-7.54-4.83-12.42-5.79-4.85-.93-10.35-.9-15.61,.97-2.65,.85-5.22,2.18-7.58,3.87-1.22,.8-2.3,1.81-3.42,2.78-1.02,1.08-2.09,2.13-2.98,3.37-3.76,4.76-5.95,10.93-6.17,17.35-.1,6.42,1.8,12.69,5.32,17.63,.83,1.27,1.84,2.38,2.81,3.51,1.08,1.02,2.1,2.09,3.28,2.94,2.28,1.8,4.78,3.25,7.39,4.23,5.17,2.13,10.66,2.43,15.55,1.73,4.93-.73,9.24-2.75,12.69-5.18,3.46-2.45,6.05-5.39,7.87-8.23,1.81-2.85,3-5.55,3.63-7.86,.39-1.13,.57-2.18,.76-3.09,.22-.9,.31-1.68,.37-2.31,.15-1.26,.26-1.92,.31-1.92,.06,0,.06,.67,.02,1.95,0,.64-.05,1.43-.22,2.36-.14,.93-.27,2.01-.62,3.18-.54,2.38-1.67,5.2-3.46,8.18-1.81,2.97-4.42,6.07-7.97,8.69-3.54,2.59-8.01,4.77-13.16,5.59-5.11,.79-10.87,.53-16.33-1.66-2.75-1.02-5.39-2.52-7.81-4.41-1.25-.9-2.34-2.01-3.48-3.09-1.03-1.18-2.1-2.35-2.98-3.69-3.73-5.19-5.75-11.83-5.65-18.61,.22-6.77,2.57-13.3,6.54-18.31,.94-1.29,2.07-2.4,3.16-3.54,1.19-1.02,2.33-2.08,3.62-2.91,2.51-1.77,5.22-3.14,8.01-4.02,5.56-1.93,11.33-1.91,16.39-.87,5.1,1.07,9.46,3.47,12.87,6.23,3.42,2.78,5.88,6.01,7.54,9.06,1.65,3.07,2.64,5.94,3.06,8.34,.3,1.19,.38,2.27,.47,3.21,.12,.93,.13,1.72,.1,2.37-.02,1.28-.06,1.95-.12,1.95Z"/>
      <path class="cls-14" d="M261.66,298.69c.07,.09-.48,.57-1.54,1.36-.58,.42-1.23,.88-1.96,1.4-.39,.27-.79,.57-1.25,.85-.48,.25-.98,.51-1.5,.78-4.07,2.35-10.52,4.75-17.88,4.5-.91-.04-1.82-.08-2.71-.12-.88-.14-1.75-.27-2.6-.41-.42-.07-.85-.13-1.26-.21-.41-.11-.81-.22-1.21-.32-.8-.22-1.59-.41-2.34-.65-2.98-1.04-5.56-2.25-7.59-3.5-4.08-2.46-6.06-4.71-5.91-4.85,.16-.19,2.38,1.69,6.49,3.82,2.04,1.08,4.58,2.14,7.47,3.06,.73,.21,1.49,.37,2.26,.57,.38,.1,.77,.19,1.17,.29,.4,.06,.8,.12,1.21,.18,.81,.12,1.64,.24,2.48,.37,.85,.03,1.71,.07,2.58,.1,7,.24,13.2-1.86,17.32-3.89,.53-.23,1.03-.45,1.52-.66,.46-.24,.88-.5,1.28-.72,.77-.42,1.46-.8,2.08-1.14,1.15-.61,1.83-.91,1.9-.81Z"/>
      <path class="cls-14" d="M213,335.68c-.07-.09,.48-.57,1.54-1.36,.58-.42,1.23-.88,1.96-1.4,.39-.27,.79-.57,1.25-.85,.48-.25,.98-.51,1.5-.78,4.07-2.35,10.52-4.75,17.88-4.5,.91,.04,1.82,.08,2.71,.12,.88,.14,1.75,.27,2.6,.41,.42,.07,.85,.13,1.26,.21,.41,.11,.81,.22,1.21,.32,.8,.22,1.59,.41,2.34,.65,2.98,1.04,5.56,2.25,7.59,3.5,4.08,2.46,6.06,4.71,5.91,4.85-.16,.19-2.38-1.69-6.49-3.82-2.04-1.08-4.58-2.14-7.47-3.06-.73-.21-1.49-.37-2.26-.57-.38-.1-.77-.19-1.17-.29-.4-.06-.8-.12-1.21-.18-.81-.12-1.64-.24-2.48-.37-.85-.03-1.71-.07-2.58-.1-7-.24-13.2,1.86-17.32,3.89-.53,.23-1.03,.45-1.52,.66-.46,.24-.88,.5-1.28,.72-.77,.42-1.46,.8-2.08,1.14-1.15,.61-1.83,.91-1.9,.81Z"/>
      <path class="cls-14" d="M267.73,318.4c-.01,.46-13.64,.51-30.43,.1-16.8-.41-30.4-1.11-30.39-1.57,.01-.46,13.63-.51,30.43-.1,16.79,.41,30.4,1.11,30.39,1.57Z"/>
      <path class="cls-14" d="M235.92,347.34c-.46-.01-.51-13.63-.1-30.42,.41-16.79,1.11-30.39,1.57-30.38,.46,.01,.51,13.63,.1,30.42-.41,16.79-1.11,30.39-1.57,30.38Z"/>
      <path class="cls-14" d="M235.92,347.29c-.11,.18-3.47-2.1-7.33-7.24-1.91-2.57-3.92-5.87-5.44-9.87-1.51-3.99-2.46-8.68-2.35-13.63,.09-4.96,1.33-9.6,3.07-13.49,1.74-3.9,3.91-7.09,5.94-9.57,4.1-4.95,7.47-7.14,7.59-6.97,.16,.19-2.9,2.68-6.66,7.7-1.86,2.51-3.87,5.67-5.46,9.45-1.59,3.77-2.73,8.2-2.81,12.91-.1,4.72,.76,9.21,2.13,13.07,1.38,3.87,3.21,7.13,4.95,9.72,3.52,5.18,6.54,7.74,6.37,7.92Z"/>
      <path class="cls-14" d="M238.08,286.55c.11-.18,3.47,2.1,7.33,7.24,1.91,2.57,3.92,5.87,5.44,9.87,1.51,3.99,2.46,8.68,2.35,13.63-.09,4.96-1.33,9.6-3.07,13.49-1.74,3.9-3.91,7.09-5.94,9.57-4.1,4.95-7.47,7.14-7.59,6.97-.16-.19,2.9-2.68,6.66-7.7,1.86-2.51,3.87-5.67,5.46-9.45,1.59-3.77,2.73-8.2,2.81-12.91,.1-4.72-.76-9.21-2.13-13.07-1.38-3.87-3.21-7.13-4.95-9.72-3.52-5.18-6.54-7.74-6.37-7.92Z"/>
    </g>
    <g>
      <g>
        <rect class="cls-4" x="145.08" y="145.42" width="50.87" height="34.29" transform="translate(-13.71 15.72) rotate(-5.08)"/>
        <path class="cls-7" d="M194.33,143.23s-.14,.18-.43,.5c-.33,.34-.76,.8-1.3,1.36-1.18,1.2-2.83,2.89-4.85,4.95-4.16,4.18-9.85,9.91-16.16,16.25l-.13,.13-.16-.1c-.12-.08-.25-.17-.38-.25-7.53-5.02-14.34-9.56-19.33-12.89-2.43-1.65-4.41-2.99-5.83-3.95-.65-.45-1.18-.82-1.57-1.09-.36-.25-.54-.39-.53-.41s.21,.1,.58,.33c.41,.26,.95,.6,1.62,1.02,1.44,.93,3.45,2.23,5.91,3.83,5,3.29,11.84,7.8,19.4,12.77,.13,.09,.26,.17,.38,.25l-.29,.03c6.34-6.3,12.07-12,16.26-16.15,2.07-2.02,3.75-3.67,4.95-4.85,.57-.54,1.02-.97,1.36-1.3,.31-.29,.49-.44,.5-.43Z"/>
      </g>
      <path class="cls-7" d="M146.69,181.89c-.1-.07,3.29-5.09,7.58-11.21,4.29-6.12,7.85-11.02,7.96-10.95,.1,.07-3.29,5.09-7.58,11.21-4.29,6.12-7.85,11.02-7.96,10.95Z"/>
      <path class="cls-7" d="M179.04,157.8c.09-.09,4.27,4.23,9.33,9.63,5.06,5.41,9.09,9.86,8.99,9.95-.09,.09-4.27-4.22-9.33-9.63-5.06-5.41-9.09-9.86-8.99-9.95Z"/>
    </g>
    <path class="cls-14" d="M194.05,74.13c1.12-8.15-10.38-14.85-19.02-15.55-4.12-.33-8.4,.3-12.3-1.06-8.46-2.95-11.84-13.88-20.09-17.36-6.17-2.6-13.27-.29-19.25,2.72-5.98,3.01-11.89,6.8-18.58,7.23-5.81,.37-12.13-1.78-17.21,1.06-3.79,2.12-5.77,6.48-9.27,9.06-3.42,2.52-7.87,3.05-12.11,3.28-4.24,.23-8.63,.27-12.49,2.04-3.86,1.77-7.05,5.85-6.25,10.02l146.58-1.45Z"/>
    <path class="cls-14" d="M383.18,381.97c.7-5.11-6.5-9.31-11.92-9.74-2.58-.21-5.27,.19-7.71-.67-5.3-1.85-7.42-8.7-12.59-10.88-3.87-1.63-8.32-.18-12.07,1.71-3.75,1.89-7.45,4.26-11.64,4.53-3.64,.23-7.6-1.12-10.79,.66-2.38,1.33-3.62,4.06-5.81,5.68-2.14,1.58-4.94,1.91-7.59,2.06-2.66,.14-5.41,.17-7.83,1.28-2.42,1.11-4.42,3.67-3.92,6.28l91.88-.91Z"/>
    <path class="cls-4" d="M368.83,33.93c.73-5.33-6.79-9.72-12.44-10.17-2.7-.22-5.5,.19-8.05-.7-5.53-1.93-7.74-9.08-13.14-11.36-4.04-1.7-8.68-.19-12.6,1.78-3.91,1.97-7.78,4.45-12.15,4.73-3.8,.24-7.93-1.17-11.26,.69-2.48,1.38-3.78,4.24-6.06,5.93-2.24,1.65-5.15,2-7.93,2.15-2.77,.15-5.65,.18-8.17,1.34-2.53,1.16-4.62,3.83-4.09,6.56l95.91-.95Z"/>
  </g>
  <g id="Sheet">
    <g>
      <g>
        <path class="cls-8" d="M321.99,169.99l-32.28,16.97c-2.23,1.17-4.99,.32-6.16-1.91l-23.49-44.68c-1.17-2.23-.32-4.99,1.91-6.16l20.47-10.76,24.43,8,17.03,32.38c1.17,2.23,.32,4.99-1.91,6.16Z"/>
        <path class="cls-8" d="M282.44,123.44l6.61,12.57c1.09,2.07,3.66,2.87,5.73,1.78l12.09-6.36-24.43-8Z"/>
        <g class="cls-6">
          <path d="M289.8,137.04s1.44,3.13,5.44,2.31c.15-.03,.3-.07,.44-.12,1.73-.55,13.09-4.16,12.97-4.4-.14-.26-1.78-3.38-1.78-3.38l-12.09,6.36s-3.07,1.48-4.99-.77Z"/>
        </g>
        <g class="cls-12">
          <path class="cls-1" d="M282.44,123.44l6.61,12.57c1.09,2.07,3.66,2.87,5.73,1.78l12.09-6.36-24.43-8Z"/>
        </g>
      </g>
      <path class="cls-2" d="M286.08,136.93c.08,.16-3.19,2.05-7.31,4.22-4.12,2.17-7.54,3.8-7.62,3.63-.08-.16,3.19-2.05,7.31-4.22,4.12-2.17,7.53-3.8,7.62-3.63Z"/>
      <path class="cls-2" d="M299.46,138.97c.08,.16-5.35,3.19-12.13,6.75-6.79,3.57-12.36,6.33-12.44,6.17-.08-.16,5.35-3.19,12.14-6.76,6.79-3.57,12.36-6.33,12.44-6.17Z"/>
      <path class="cls-2" d="M304.8,143.74c.08,.16-5.84,3.45-13.24,7.34-7.4,3.89-13.46,6.91-13.55,6.75-.08-.16,5.84-3.45,13.24-7.34,7.4-3.89,13.46-6.91,13.55-6.75Z"/>
      <path class="cls-2" d="M307.74,149.34c.09,.16-5.84,3.45-13.24,7.34-7.4,3.89-13.46,6.91-13.55,6.75-.08-.16,5.84-3.45,13.24-7.34,7.4-3.89,13.46-6.91,13.55-6.75Z"/>
      <path class="cls-2" d="M310.69,154.94c.08,.16-5.84,3.45-13.24,7.34-7.4,3.89-13.46,6.91-13.55,6.75-.08-.16,5.84-3.45,13.24-7.34,7.4-3.89,13.46-6.91,13.55-6.75Z"/>
      <path class="cls-2" d="M313.63,160.54c.08,.16-5.84,3.45-13.24,7.34-7.4,3.89-13.46,6.91-13.55,6.75-.08-.16,5.84-3.45,13.24-7.34,7.4-3.89,13.46-6.91,13.55-6.75Z"/>
    </g>
  </g>
  <g id="Stopwatch">
    <g>
      <g>
        <g>
          <rect class="cls-15" x="199.4" y="204.93" width="3.27" height="5.1" transform="translate(-74.56 294.15) rotate(-63.36)"/>
          <path class="cls-5" d="M201.63,203.99l-3.02,6.02-4.91-2.46c.54-2.37,1.51-4.39,3.02-6.02l4.91,2.46Z"/>
        </g>
        <path class="cls-15" d="M199.12,209c-.05,.1-1.24-.39-2.65-1.09-1.42-.7-2.53-1.35-2.48-1.44,.05-.1,1.24,.39,2.65,1.09,1.42,.7,2.53,1.35,2.48,1.44Z"/>
        <path class="cls-15" d="M199.7,207.85c-.05,.1-1.25-.45-2.68-1.21-1.43-.76-2.55-1.43-2.52-1.5,.06-.13,1.27,.4,2.7,1.16,1.43,.76,2.55,1.46,2.49,1.55Z"/>
        <path class="cls-15" d="M200.46,206.33c-.05,.09-1.26-.46-2.7-1.23-1.44-.77-2.57-1.47-2.53-1.55,.06-.12,1.27,.43,2.72,1.2,1.44,.77,2.57,1.48,2.52,1.58Z"/>
        <path class="cls-15" d="M201.15,204.91c-.05,.1-1.24-.41-2.65-1.12-1.42-.72-2.52-1.38-2.47-1.47,.05-.1,1.24,.41,2.65,1.12,1.42,.72,2.52,1.38,2.47,1.47Z"/>
      </g>
      <g>
        <g>
          <rect class="cls-15" x="236.99" y="189.81" width="3.27" height="5.1" transform="translate(97.13 -79.52) rotate(23.63)"/>
          <path class="cls-5" d="M242.13,192.78l-6.17-2.7,2.2-5.04c2.39,.41,4.47,1.28,6.17,2.7l-2.2,5.04Z"/>
        </g>
        <path class="cls-15" d="M237,190.54c-.1-.04,.33-1.25,.95-2.71,.63-1.45,1.21-2.6,1.31-2.55,.1,.04-.33,1.25-.95,2.71-.63,1.45-1.21,2.6-1.31,2.55Z"/>
        <path class="cls-15" d="M238.17,191.05c-.1-.05,.38-1.27,1.07-2.74,.68-1.47,1.3-2.62,1.37-2.59,.13,.05-.33,1.29-1.02,2.76-.68,1.47-1.32,2.62-1.42,2.57Z"/>
        <path class="cls-15" d="M239.74,191.73c-.1-.05,.39-1.28,1.09-2.76,.7-1.48,1.33-2.64,1.41-2.61,.12,.05-.36,1.3-1.06,2.77-.7,1.48-1.35,2.64-1.44,2.59Z"/>
        <path class="cls-15" d="M241.19,192.35c-.1-.04,.34-1.26,.98-2.71,.64-1.45,1.24-2.59,1.34-2.55,.1,.04-.34,1.25-.98,2.71-.64,1.45-1.24,2.59-1.34,2.55Z"/>
      </g>
      <g>
        <g>
          <rect class="cls-15" x="215.01" y="188.81" width="3.87" height="6.04" transform="translate(-57.17 98.42) rotate(-22.67)"/>
          <path class="cls-8" d="M220.17,189.17l-7.35,3.07-2.51-6c2.31-1.71,4.75-2.77,7.35-3.07l2.51,6Z"/>
        </g>
        <path class="cls-15" d="M217.76,183.15c.08,.05-1.15,1.59-3.34,2.51-2.18,.94-4.15,.74-4.12,.65,0-.12,1.88-.11,3.97-1.01,2.1-.87,3.41-2.24,3.49-2.15Z"/>
        <path class="cls-15" d="M215.24,191.21c-.1,.04-.66-1.08-1.26-2.5-.59-1.42-.99-2.61-.9-2.65,.1-.04,.66,1.08,1.26,2.5,.59,1.42,.99,2.61,.89,2.65Z"/>
        <path class="cls-15" d="M216.66,190.66c-.1,.04-.66-1.08-1.26-2.51-.6-1.43-1-2.62-.9-2.66,.1-.04,.66,1.08,1.26,2.51,.6,1.43,1,2.62,.9,2.66Z"/>
        <path class="cls-15" d="M218.05,190.05c-.1,.04-.66-1.08-1.26-2.51-.6-1.43-1-2.62-.9-2.66,.1-.04,.66,1.08,1.26,2.51,.6,1.43,1,2.62,.9,2.66Z"/>
        <path class="cls-15" d="M219.21,189.56c-.1,.04-.7-1.18-1.35-2.72-.64-1.54-1.09-2.83-.99-2.87,.1-.04,.7,1.18,1.35,2.72,.64,1.54,1.09,2.83,.99,2.87Z"/>
        <path class="cls-15" d="M213.91,191.74c-.1,.04-.7-1.18-1.35-2.72-.64-1.54-1.09-2.83-.99-2.87,.1-.04,.7,1.18,1.35,2.72,.64,1.54,1.09,2.83,.99,2.87Z"/>
      </g>
      <circle class="cls-8" cx="227.8" cy="219.04" r="28.14" transform="translate(-80.65 287.83) rotate(-56.45)"/>
      <g>
        <circle class="cls-2" cx="227.71" cy="218.84" r="23.63" transform="translate(-60.16 348.73) rotate(-68.15)"/>
        <path class="cls-15" d="M249.52,209.73s-.07-.11-.18-.34c-.12-.24-.29-.57-.5-1.01-.11-.22-.23-.47-.37-.74-.15-.27-.33-.54-.52-.85-.38-.61-.8-1.33-1.4-2.06-1.09-1.52-2.71-3.18-4.83-4.77-2.13-1.57-4.85-3.01-8.09-3.84-3.22-.82-6.97-1.09-10.81-.23-.95,.25-1.93,.44-2.87,.83-.47,.18-.96,.33-1.43,.54-.46,.22-.93,.45-1.4,.67-.23,.12-.48,.22-.7,.35l-.68,.41c-.45,.28-.91,.54-1.36,.85-.85,.66-1.76,1.27-2.53,2.05-.84,.72-1.55,1.58-2.3,2.42-.35,.44-.67,.91-1.01,1.37-.35,.45-.64,.95-.93,1.45-.63,.97-1.08,2.05-1.58,3.11-.39,1.11-.83,2.22-1.07,3.39-.54,2.33-.84,4.78-.6,7.25,.2,2.47,.78,4.93,1.73,7.29,1.01,2.33,2.35,4.48,3.97,6.36,1.59,1.9,3.55,3.42,5.58,4.67,1.01,.65,2.1,1.12,3.17,1.62,1.11,.39,2.19,.83,3.33,1.06,.56,.15,1.11,.29,1.68,.35,.56,.08,1.12,.19,1.68,.24,1.13,.06,2.24,.16,3.34,.06,1.11,0,2.18-.22,3.24-.36,.53-.1,1.04-.25,1.56-.37l.77-.19c.25-.07,.5-.17,.74-.25,.49-.18,.98-.35,1.46-.52,.48-.19,.93-.43,1.39-.64,.94-.4,1.76-.96,2.61-1.46,3.31-2.13,5.75-4.98,7.43-7.85,1.68-2.89,2.58-5.83,2.95-8.45,.36-2.63,.32-4.94,0-6.79-.09-.93-.31-1.74-.48-2.44-.09-.35-.15-.68-.24-.97-.1-.29-.19-.55-.27-.78-.15-.46-.28-.81-.36-1.06-.08-.24-.11-.37-.11-.37,0,0,.06,.12,.15,.35,.1,.25,.23,.6,.4,1.05,.09,.23,.18,.49,.29,.78,.09,.29,.17,.62,.26,.97,.18,.7,.41,1.51,.52,2.45,.34,1.85,.41,4.19,.06,6.84-.36,2.65-1.24,5.63-2.93,8.56-1.69,2.91-4.15,5.82-7.49,7.98-.85,.51-1.69,1.08-2.64,1.49-.47,.22-.92,.46-1.41,.66-.49,.18-.99,.36-1.48,.54-.25,.09-.5,.19-.75,.26l-.78,.2c-.52,.12-1.04,.28-1.58,.38-1.08,.14-2.17,.37-3.29,.37-1.12,.1-2.25,0-3.39-.06-.57-.06-1.14-.16-1.71-.24-.58-.07-1.14-.21-1.71-.36-1.15-.24-2.25-.68-3.38-1.07-1.08-.51-2.19-.98-3.22-1.65-2.07-1.27-4.06-2.81-5.68-4.74-1.64-1.91-3.01-4.09-4.03-6.47-.96-2.4-1.56-4.9-1.76-7.41-.23-2.51,.07-5.01,.62-7.37,.25-1.19,.69-2.32,1.09-3.45,.51-1.08,.97-2.17,1.61-3.16,.29-.51,.59-1.01,.95-1.47,.35-.46,.67-.94,1.03-1.39,.76-.85,1.49-1.73,2.34-2.45,.79-.8,1.71-1.41,2.58-2.08,.45-.31,.92-.57,1.38-.85l.69-.42c.23-.13,.48-.23,.71-.35,.48-.23,.95-.45,1.42-.68,.48-.21,.98-.36,1.46-.54,.95-.39,1.95-.58,2.91-.83,3.89-.86,7.69-.56,10.95,.28,3.27,.86,6.01,2.33,8.15,3.93,2.13,1.62,3.75,3.31,4.82,4.85,.59,.74,1,1.47,1.37,2.09,.18,.31,.36,.59,.51,.86,.13,.28,.24,.53,.35,.75,.2,.44,.36,.78,.47,1.02,.1,.23,.15,.35,.15,.35Z"/>
      </g>
      <g>
        <path class="cls-15" d="M246.2,210.72c-1.98,.86-3.63,1.44-3.7,1.3-.07-.15,1.45-1.03,3.39-1.98,1.94-.95,3.59-1.53,3.7-1.3,.11,.23-1.41,1.12-3.39,1.98Z"/>
        <path class="cls-15" d="M246.56,226.06c-2.01-.78-3.6-1.53-3.54-1.68,.05-.15,1.76,.29,3.8,.98,2.04,.69,3.63,1.44,3.54,1.68-.09,.24-1.79-.2-3.8-.98Z"/>
        <path class="cls-15" d="M236.04,237.23c-.88-1.97-1.48-3.62-1.34-3.68,.15-.07,1.05,1.43,2.01,3.36,.97,1.92,1.57,3.58,1.34,3.69-.23,.11-1.13-1.4-2.01-3.37Z"/>
        <path class="cls-15" d="M220.7,237.77c.76-2.02,1.49-3.61,1.64-3.56,.15,.05-.27,1.76-.93,3.81-.67,2.05-1.4,3.64-1.64,3.56-.24-.08,.18-1.79,.93-3.81Z"/>
        <path class="cls-15" d="M209.42,227.36c1.96-.91,3.6-1.52,3.67-1.38,.07,.14-1.42,1.06-3.34,2.05-1.92,.99-3.56,1.6-3.67,1.38-.11-.23,1.39-1.15,3.34-2.05Z"/>
        <path class="cls-15" d="M208.71,212.03c2.03,.73,3.63,1.45,3.58,1.6-.05,.15-1.76-.25-3.82-.89-2.06-.64-3.66-1.36-3.58-1.6,.08-.24,1.79,.16,3.82,.89Z"/>
        <path class="cls-15" d="M218.99,200.63c.93,1.95,1.56,3.58,1.42,3.66-.14,.07-1.08-1.41-2.09-3.32-1.01-1.9-1.64-3.54-1.42-3.66,.23-.11,1.16,1.37,2.09,3.32Z"/>
        <path class="cls-15" d="M234.31,199.76c-.71,2.04-1.41,3.65-1.56,3.6-.15-.05,.23-1.76,.85-3.83,.62-2.06,1.32-3.67,1.56-3.6,.24,.08-.14,1.79-.85,3.83Z"/>
        <path class="cls-15" d="M245.82,209.91c-1.94,.95-3.57,1.6-3.64,1.46-.07-.14,1.4-1.09,3.3-2.12,1.89-1.03,3.52-1.68,3.64-1.46,.12,.23-1.36,1.18-3.3,2.12Z"/>
      </g>
      <path class="cls-1" d="M209.39,198.78s-.32,.36-.92,.98c-.6,.62-1.43,1.55-2.35,2.78-1.85,2.44-3.95,6.25-4.9,10.85-.95,4.6-.53,8.93,.2,11.91,.36,1.5,.75,2.68,1.05,3.49,.3,.81,.48,1.25,.45,1.26-.01,0-.07-.1-.17-.3-.1-.21-.26-.5-.42-.91-.35-.79-.79-1.98-1.18-3.48-.8-2.99-1.28-7.38-.31-12.05,.97-4.67,3.14-8.51,5.07-10.94,.96-1.22,1.83-2.13,2.46-2.72,.31-.3,.57-.51,.75-.66,.17-.15,.27-.22,.28-.21Z"/>
      <path class="cls-1" d="M216.05,194.35c.05,.1-1.04,.72-2.37,1.49-1.33,.77-2.41,1.41-2.48,1.31-.06-.09,.93-.87,2.28-1.65,1.35-.78,2.52-1.25,2.57-1.15Z"/>
      <g class="cls-10">
        <path d="M215.76,239.23s18.75,13.12,32.47-3.34c14.32-17.18-4.92-34.81-4.92-34.81,0,0,15.89,13.82,2.79,32.63-3.26,4.68-8.1,6.71-11.94,7.88-9.82,2.99-18.39-2.35-18.39-2.35Z"/>
      </g>
      <path class="cls-7" d="M228.95,204.71c1.44,3.15,2.69,6.4,3.71,9.71,.37,1.2,.72,2.42,.73,3.68,.01,1.25-.35,2.56-1.23,3.46s-2.33,1.28-3.44,.71l.22-17.55Z"/>
      <g>
        <g>
          <polygon class="cls-8" points="226.52 217.31 228.87 200.66 230.38 217.72 228.24 219.48 226.52 217.31"/>
          <g class="cls-10">
            <polygon points="228.87 200.66 228.69 216.75 230.38 217.72 228.87 200.66"/>
          </g>
        </g>
        <g>
          <g>
            <path class="cls-2" d="M230.8,218.41c.59,1.41-.08,3.03-1.49,3.62s-3.03-.08-3.62-1.49,.08-3.03,1.49-3.62c1.41-.59,3.03,.08,3.62,1.49Z"/>
            <path class="cls-15" d="M230.8,218.41s-.13-.21-.4-.54c-.27-.33-.76-.75-1.49-.93-.72-.18-1.69-.04-2.41,.64-.72,.65-1.07,1.85-.62,2.89,.43,1.05,1.53,1.65,2.49,1.59,.98-.03,1.78-.63,2.15-1.27,.39-.64,.43-1.29,.39-1.71-.05-.43-.14-.65-.11-.67,.02,0,.16,.2,.26,.64,.09,.43,.1,1.14-.3,1.87-.38,.72-1.25,1.43-2.37,1.49-1.1,.09-2.38-.59-2.87-1.8-.52-1.2-.1-2.58,.74-3.31,.83-.76,1.94-.88,2.72-.64,.8,.23,1.3,.73,1.54,1.11,.25,.38,.3,.63,.28,.63Z"/>
          </g>
          <path class="cls-5" d="M230.14,218.68c.44,1.05-.06,2.25-1.11,2.69-1.05,.44-2.25-.06-2.69-1.11-.44-1.05,.06-2.25,1.11-2.69s2.25,.06,2.69,1.11Z"/>
        </g>
      </g>
    </g>
  </g>
  <g id="Video">
    <g>
      <path class="cls-8" d="M191.08,288.6s.58-.08,1.24-.83c.31-.38,.6-.95,.61-1.67,0-.36-.09-.73-.2-1.15-.1-.41-.21-.85-.33-1.31-.92-3.73-2.25-9.09-3.89-15.7-.41-1.66-.83-3.39-1.28-5.2-.22-.9-.45-1.83-.68-2.77-.13-.47-.2-.97-.39-1.36-.2-.41-.52-.76-.91-1.01-.39-.24-.86-.36-1.33-.33-.45,.04-.97,.22-1.46,.34-1,.26-2.02,.53-3.06,.79-2.07,.54-4.2,1.09-6.38,1.66-8.74,2.26-18.35,4.74-28.43,7.35-1.17,.28-1.92,1.55-1.71,2.71,.3,1.24,.59,2.48,.89,3.71,.6,2.47,1.18,4.9,1.76,7.28,1.15,4.77,2.26,9.38,3.32,13.77,.13,.55,.26,1.09,.39,1.64,.1,.53,.35,.98,.71,1.33,.36,.35,.83,.58,1.32,.63,.49,.08,.97-.1,1.51-.23,2.07-.53,4.08-1.04,6.03-1.54,3.89-.99,7.51-1.91,10.82-2.76,6.6-1.67,11.95-3.02,15.68-3.96,1.83-.45,3.27-.8,4.27-1.05,.47-.11,.84-.2,1.11-.26,.25-.06,.38-.08,.38-.07,0,0-.12,.05-.37,.12-.27,.08-.64,.18-1.1,.31-1,.27-2.42,.65-4.25,1.14-3.72,.98-9.05,2.38-15.64,4.11-3.31,.86-6.92,1.8-10.81,2.82-1.94,.5-3.95,1.03-6.02,1.56-.5,.12-1.06,.33-1.67,.25-.59-.06-1.15-.34-1.58-.75-.43-.41-.73-.98-.84-1.55-.13-.54-.26-1.09-.4-1.63-1.07-4.39-2.19-8.99-3.35-13.76-.58-2.39-1.17-4.82-1.77-7.28-.3-1.24-.6-2.49-.9-3.74-.26-1.39,.64-2.93,2.07-3.27,10.09-2.59,19.7-5.06,28.44-7.31,2.19-.56,4.32-1.11,6.39-1.64,1.04-.26,2.06-.53,3.06-.78,.51-.11,.97-.29,1.54-.34,.55-.04,1.11,.11,1.57,.39,.46,.29,.83,.7,1.06,1.18,.23,.5,.29,.98,.42,1.45,.23,.94,.45,1.87,.66,2.77,.43,1.81,.85,3.55,1.25,5.21,1.57,6.62,2.85,11.99,3.73,15.73,.11,.46,.21,.9,.31,1.32,.1,.41,.2,.81,.18,1.19-.02,.76-.34,1.36-.68,1.74-.35,.38-.7,.57-.94,.66-.24,.1-.38,.11-.38,.11Z"/>
      <polygon class="cls-8" points="168.76 274.8 174.86 276.64 170.29 281.18 165.72 285.73 164.19 279.34 162.67 272.95 168.76 274.8"/>
    </g>
  </g>
  <g id="Photos">
    <g>
      <g>
        <g>
          <rect class="cls-14" x="80.14" y="231.26" width="33.04" height="26.41" transform="translate(-58.46 32.23) rotate(-14.59)"/>
          <path class="cls-15" d="M109.32,227.53s-.05,.02-.15,.05c-.11,.03-.25,.07-.45,.12-.4,.11-.98,.26-1.73,.46-1.52,.4-3.73,.99-6.54,1.73-5.61,1.47-13.59,3.56-23.07,6.05l.06-.1c1.98,7.61,4.26,16.33,6.66,25.55h0s-.12-.07-.12-.07c11.84-3.07,22.84-5.93,31.97-8.31l-.06,.1c-1.99-7.7-3.63-14.08-4.78-18.55-.57-2.23-1.02-3.99-1.33-5.19-.15-.6-.27-1.05-.35-1.37-.08-.31-.11-.48-.11-.48,0,0,.05,.15,.13,.46,.08,.31,.2,.76,.36,1.35,.32,1.19,.78,2.94,1.36,5.16,1.17,4.47,2.85,10.86,4.88,18.58l.02,.08-.08,.02c-9.13,2.38-20.13,5.25-31.97,8.34l-.09,.02-.02-.09h0c-2.4-9.23-4.66-17.95-6.64-25.56l-.02-.08,.08-.02c9.51-2.46,17.52-4.53,23.15-5.98,2.8-.72,5.02-1.29,6.53-1.68,.75-.19,1.33-.34,1.72-.44,.19-.05,.34-.08,.44-.11,.1-.02,.15-.03,.15-.03Z"/>
        </g>
        <rect class="cls-8" x="81.28" y="232.93" width="30.71" height="23.09" transform="translate(-58.46 32.22) rotate(-14.59)"/>
        <polygon class="cls-8" points="84.68 259.51 91.45 242.92 100.14 249.94 103.3 244.16 114.41 251.77 84.68 259.51"/>
        <path class="cls-8" d="M100.17,238.84c.34,1.29-.44,2.61-1.73,2.95-1.29,.34-2.61-.44-2.95-1.73-.34-1.29,.44-2.61,1.73-2.95s2.61,.44,2.95,1.73Z"/>
        <g class="cls-6">
          <polygon points="84.68 259.51 91.45 242.92 100.14 249.94 103.3 244.16 114.41 251.77 84.68 259.51"/>
        </g>
        <g class="cls-6">
          <path d="M100.17,238.84c.34,1.29-.44,2.61-1.73,2.95-1.29,.34-2.61-.44-2.95-1.73-.34-1.29,.44-2.61,1.73-2.95s2.61,.44,2.95,1.73Z"/>
        </g>
      </g>
      <g>
        <g>
          <rect class="cls-14" x="94.58" y="207.13" width="49.92" height="39.91" transform="translate(-15.67 8.97) rotate(-4.03)"/>
          <path class="cls-15" d="M143.04,205.42s-.08,.01-.24,.02c-.16,.01-.4,.03-.7,.06-.62,.05-1.53,.12-2.7,.21-2.37,.17-5.82,.43-10.19,.75-8.75,.63-21.17,1.53-35.95,2.6l.12-.14c.84,11.85,1.8,25.43,2.82,39.8h0s-.15-.13-.15-.13c18.44-1.29,35.57-2.49,49.8-3.49l-.11,.13c-.82-11.99-1.5-21.93-1.97-28.88-.23-3.48-.41-6.2-.54-8.07-.06-.93-.1-1.64-.14-2.13-.03-.48-.04-.74-.04-.74,0,0,.03,.24,.06,.71,.04,.48,.09,1.19,.16,2.11,.14,1.86,.34,4.58,.6,8.04,.51,6.97,1.23,16.93,2.1,28.94v.12s-.11,0-.11,0c-14.23,1.01-31.36,2.23-49.79,3.53h-.14s-.01-.13-.01-.13h0c-1.01-14.38-1.96-27.96-2.79-39.81v-.13s.12,0,.12,0c14.81-1.02,27.28-1.87,36.04-2.48,4.36-.29,7.81-.52,10.17-.68,1.17-.08,2.07-.13,2.68-.17,.3-.02,.52-.03,.68-.04,.15,0,.23,0,.23,0Z"/>
        </g>
        <rect class="cls-8" x="96.31" y="209.64" width="46.41" height="34.88" transform="translate(-15.67 8.96) rotate(-4.03)"/>
        <polygon class="cls-8" points="97.59 246.11 112.23 223.34 123.2 236.17 129.49 228.46 143.89 242.85 97.59 246.11"/>
        <path class="cls-8" d="M126.32,219.69c.14,2.01-1.37,3.76-3.39,3.9-2.01,.14-3.76-1.38-3.9-3.39-.14-2.01,1.37-3.76,3.39-3.9,2.01-.14,3.76,1.38,3.9,3.39Z"/>
        <g class="cls-6">
          <polygon points="97.59 246.11 112.23 223.34 123.2 236.17 129.49 228.46 143.89 242.85 97.59 246.11"/>
        </g>
        <g class="cls-6">
          <path d="M126.32,219.69c.14,2.01-1.37,3.76-3.39,3.9-2.01,.14-3.76-1.38-3.9-3.39-.14-2.01,1.37-3.76,3.39-3.9,2.01-.14,3.76,1.38,3.9,3.39Z"/>
        </g>
      </g>
    </g>
  </g>
  <g id="Light_Bulb" data-name="Light Bulb">
    <g>
      <g>
        <path class="cls-8" d="M47.88,266.35c-2.43-7.81-10.73-12.17-18.54-9.73s-12.17,10.73-9.73,18.54c1.76,5.65,6.6,9.49,12.1,10.26,.52,1.68,1.11,3.57,1.11,3.57l12.39-3.86s-.55-2.02-1.08-3.82c3.82-3.77,5.46-9.48,3.75-14.96Z"/>
        <path class="cls-15" d="M40.71,286.46s-.02-.06-.04-.18c-.02-.13-.06-.3-.1-.53-.08-.46-.21-1.15-.35-2.04-.14-.89-.29-1.98-.39-3.25-.09-1.27-.14-2.73,.06-4.33,.1-.8,.24-1.63,.5-2.48,.14-.42,.34-.85,.7-1.17,.35-.32,.86-.49,1.36-.37,.24,.06,.48,.2,.62,.42,.15,.21,.21,.49,.17,.74-.08,.52-.4,.96-.8,1.28-.83,.62-1.93,.87-3,.71-1.07-.16-2.09-.8-2.73-1.74-.31-.47-.57-1.01-.59-1.6-.04-.59,.34-1.25,.98-1.38,.31-.07,.66,.05,.87,.27,.22,.22,.36,.52,.39,.84,.05,.63-.24,1.21-.56,1.71-.66,1.01-1.75,1.8-3,1.98-1.24,.18-2.55-.27-3.37-1.19-.42-.44-.68-1.06-.63-1.68,.03-.31,.16-.63,.43-.82,.25-.2,.6-.25,.9-.19,.3,.06,.58,.22,.79,.43,.21,.22,.36,.48,.47,.75,.21,.54,.31,1.12,.29,1.68-.03,1.13-.49,2.22-1.25,2.99-.76,.77-1.78,1.23-2.8,1.31-.5,.04-1.04,0-1.48-.28-.43-.28-.7-.84-.5-1.34,.1-.24,.31-.42,.54-.51,.23-.09,.48-.12,.72-.08,.48,.08,.86,.39,1.17,.7,.59,.66,1.11,1.31,1.62,1.93,2.02,2.5,3.55,4.59,4.6,6.05,.52,.73,.92,1.3,1.19,1.69,.13,.19,.23,.34,.3,.45,.07,.1,.1,.16,.1,.16,0,0-.04-.05-.11-.14-.08-.1-.18-.25-.32-.44-.28-.39-.69-.95-1.21-1.67-1.06-1.45-2.61-3.53-4.64-6.01-.51-.62-1.04-1.28-1.62-1.92-.3-.3-.66-.59-1.09-.65-.42-.07-.92,.09-1.09,.5-.17,.4,.07,.91,.45,1.15,.39,.25,.9,.29,1.38,.25,.98-.08,1.96-.53,2.69-1.27,.73-.74,1.18-1.79,1.2-2.88,.02-.54-.08-1.1-.28-1.61-.2-.5-.58-.98-1.13-1.07-.26-.05-.55,0-.75,.16-.21,.16-.33,.42-.35,.69-.04,.56,.19,1.13,.58,1.54,.78,.87,2.03,1.3,3.21,1.13,1.19-.17,2.24-.93,2.87-1.9,.31-.49,.57-1.04,.53-1.6-.02-.27-.14-.54-.33-.72-.19-.19-.46-.29-.71-.23-.26,.05-.48,.23-.63,.45-.15,.22-.21,.49-.21,.76,.02,.54,.26,1.06,.56,1.51,.61,.9,1.59,1.51,2.61,1.67,1.02,.16,2.09-.09,2.88-.67,.38-.3,.68-.72,.74-1.18,.08-.46-.23-.91-.67-1-.43-.1-.91,.04-1.22,.34-.33,.3-.52,.7-.66,1.11-.26,.83-.41,1.66-.51,2.45-.2,1.59-.17,3.04-.08,4.31,.09,1.27,.24,2.36,.36,3.24,.14,.88,.24,1.57,.32,2.04,.04,.23,.06,.4,.08,.53,.02,.12,.02,.18,.02,.18Z"/>
        <path class="cls-15" d="M44.97,287.72l-10.64,3.31c-.44,.14-.91-.11-1.05-.55h0c-.14-.44,.11-.91,.55-1.05l10.64-3.31c.44-.14,.91,.11,1.05,.55h0c.14,.44-.11,.91-.55,1.05Z"/>
        <path class="cls-15" d="M45.18,288.41l-10.64,3.31c-.44,.14-.69,.61-.55,1.05,.14,.44,.61,.69,1.05,.55l1.17-.36,2.47,2.47c.28,.28,.7,.38,1.08,.27l3.8-1.18c.38-.12,.67-.45,.74-.84l.59-3.41,.79-.25c.44-.14,.69-.61,.55-1.05-.14-.44-.61-.69-1.05-.55Z"/>
      </g>
      <g class="cls-6">
        <path class="cls-1" d="M21.86,264.57c.68-1.17,1.48-2.1,2.24-2.76,.76-.67,1.46-1.09,1.98-1.31,.52-.22,.84-.27,.9-.16,.14,.24-.81,.95-1.96,2.37-1.14,1.39-2.43,3.6-2.79,6.28-.35,2.67,.31,5.15,1.05,6.79,.73,1.66,1.47,2.6,1.27,2.8-.09,.08-.38-.04-.83-.39-.44-.35-1.01-.94-1.57-1.79-.56-.84-1.1-1.95-1.44-3.26-.35-1.31-.48-2.82-.28-4.39"/>
      </g>
      <g class="cls-6">
        <path class="cls-1" d="M30.57,259.89c-.9,.27-1.77,.27-2.01-.17-.11-.22-.03-.53,.24-.82,.26-.3,.7-.58,1.24-.74,.54-.16,1.06-.17,1.44-.07,.38,.1,.63,.3,.66,.55"/>
      </g>
      <path class="cls-5" d="M44.18,293.98s-.31,0-.8,0c-.49,0-1.17,.09-1.88,.33-.71,.24-1.29,.6-1.69,.89-.39,.29-.61,.51-.63,.49-.01-.01,.17-.26,.55-.59,.38-.33,.98-.71,1.71-.96,.73-.25,1.43-.31,1.94-.29,.5,.02,.8,.11,.8,.13Z"/>
      <path class="cls-5" d="M44.92,290.29s-1.9,.69-4.27,1.42c-2.37,.74-4.31,1.3-4.32,1.25-.01-.05,1.9-.69,4.27-1.42,2.37-.74,4.31-1.3,4.32-1.25Z"/>
      <path class="cls-5" d="M44.65,291.76s-.38,.19-1.01,.43c-.64,.24-1.52,.56-2.51,.88-.99,.32-1.89,.59-2.55,.77-.66,.18-1.07,.27-1.07,.25,0-.02,.39-.16,1.04-.37,.7-.23,1.57-.51,2.53-.82,.96-.32,1.82-.6,2.52-.83,.65-.21,1.05-.34,1.06-.31Z"/>
    </g>
  </g>
  <g id="Character">
    <g>
      <g>
        <g>
          <path class="cls-8" d="M363.47,200.07c-11-10.19-30.5-9-40.18,2.46-3.82,4.52-6.4,10.44-11.64,13.18-8.04,4.21-17.76-1.1-26.8-.33-10.6,.91-19.3,11.66-17.98,22.21,.6,4.75,2.85,9.83,.62,14.07-2.85,5.41-11.1,5.62-14.57,10.66-3.13,4.55-.69,11.26,3.85,14.4,4.54,3.14,10.42,3.52,15.93,3.27,5.52-.25,11.12-1.02,16.5,.2,5.93,1.35,11.05,4.98,16.69,7.24,13.57,5.44,29.46,2.41,42.04-5.06,12.57-7.47,22.3-18.89,30.78-30.8"/>
          <g class="cls-9">
            <path class="cls-1" d="M363.47,200.07c-11-10.19-30.5-9-40.18,2.46-3.82,4.52-6.4,10.44-11.64,13.18-8.04,4.21-17.76-1.1-26.8-.33-10.6,.91-19.3,11.66-17.98,22.21,.6,4.75,2.85,9.83,.62,14.07-2.85,5.41-11.1,5.62-14.57,10.66-3.13,4.55-.69,11.26,3.85,14.4,4.54,3.14,10.42,3.52,15.93,3.27,5.52-.25,11.12-1.02,16.5,.2,5.93,1.35,11.05,4.98,16.69,7.24,13.57,5.44,29.46,2.41,42.04-5.06,12.57-7.47,22.3-18.89,30.78-30.8"/>
          </g>
        </g>
        <path class="cls-8" d="M360.81,213.95c-8.95-8.78-25.6-7.54-33.15,2.46-4.61,6.11-7.26,15.45-14.85,16.47-5.15,.7-10.02-3.18-15.2-2.78-6.89,.53-11.07,8.93-9.3,15.61,1.77,6.68,7.65,11.5,13.82,14.63,21.37,10.85,49.86,5.12,65.36-13.16"/>
      </g>
      <g>
        <g>
          <polyline class="cls-13" points="564.52 236.3 552.95 219.9 568 209.23 578.54 230.64 565.22 236.15"/>
          <g>
            <g>
              <path class="cls-8" d="M577.91,227.71l8.19,14.77s17.76-3.36,19.54-.78l-28.07,16.9-13.7-22.49,14.04-8.4Z"/>
              <g class="cls-3">
                <path class="cls-1" d="M576.68,246.49c-.45,.48-.46,1.31,0,1.79,.46,.47,1.31,.49,1.77,.02,.46-.47,.5-1.47,0-1.89-.51-.42-1.51-.38-1.84,.18"/>
              </g>
              <g class="cls-3">
                <path class="cls-1" d="M577.57,258.6l-1.29-2.32,27.4-15.34s1.58-.21,1.97,.76l-28.07,16.9Z"/>
              </g>
              <path class="cls-15" d="M586.47,242.06c.08,.14-.57,.61-.98,1.46-.43,.84-.42,1.64-.58,1.66-.14,.05-.43-.89,.08-1.91,.5-1.02,1.43-1.36,1.48-1.21Z"/>
              <path class="cls-15" d="M590.14,241.51c.11,.11-.34,.7-.46,1.56-.14,.86,.12,1.55-.02,1.63-.12,.1-.69-.65-.53-1.71,.16-1.07,.93-1.61,1.01-1.48Z"/>
              <path class="cls-15" d="M593.94,244.02c-.11,.1-.71-.47-.81-1.43-.11-.96,.36-1.65,.49-1.57,.15,.07-.03,.72,.07,1.51,.08,.79,.38,1.39,.26,1.49Z"/>
              <path class="cls-15" d="M584.23,238.9c.02,.16-.72,.35-1.47,.87-.75,.5-1.2,1.13-1.34,1.05-.14-.05,.14-.91,1.03-1.51,.88-.61,1.78-.56,1.78-.41Z"/>
            </g>
            <path class="cls-15" d="M582.52,235.95c.04,.06-.46,.47-1.41,.84-.48,.18-1.07,.35-1.74,.43-.34,.04-.69,.06-1.07,.06-.18,0-.38,0-.62-.07-.24-.05-.54-.36-.5-.69,.01-.3,.21-.55,.41-.67,.2-.13,.4-.19,.57-.24,.36-.11,.71-.19,1.05-.23,.68-.08,1.3-.03,1.81,.07,1.01,.21,1.54,.59,1.51,.64-.03,.08-.61-.16-1.57-.25-.48-.05-1.06-.05-1.68,.05-.31,.05-.63,.13-.96,.24-.34,.1-.6,.25-.6,.43,0,.07,.01,.09,.13,.14,.11,.04,.28,.05,.46,.05,.35,.01,.68,0,1-.02,.64-.05,1.2-.17,1.67-.3,.94-.26,1.49-.54,1.53-.47Z"/>
            <path class="cls-15" d="M582.46,236.26c-.04,.05-.6-.28-1.19-1.13-.29-.43-.56-.99-.73-1.65-.08-.33-.14-.69-.16-1.07,0-.38-.03-.87,.47-1.25,.27-.18,.63-.1,.82,.04,.21,.13,.32,.29,.45,.43,.25,.3,.44,.62,.57,.95,.27,.65,.33,1.3,.27,1.81-.11,1.06-.58,1.57-.62,1.53-.09-.04,.23-.59,.23-1.55,0-.47-.09-1.03-.35-1.59-.13-.28-.3-.55-.51-.8-.22-.27-.48-.45-.57-.35-.14,.08-.24,.45-.21,.76,0,.34,.05,.67,.11,.97,.13,.61,.35,1.15,.57,1.57,.46,.85,.91,1.27,.85,1.34Z"/>
          </g>
          <polyline class="cls-15" points="521.67 178.01 557.61 234.49 577.26 221.13 544.16 153.08"/>
          <path class="cls-5" d="M524.58,165.62c.15,.07-.92,2.36-1.44,5.39-.54,3.03-.3,5.55-.47,5.56-.12,.03-.6-2.53-.05-5.65,.53-3.12,1.84-5.37,1.95-5.3Z"/>
          <path class="cls-5" d="M520.89,165.78c.16,.01,0,2.48,.41,5.48,.38,3,1.16,5.35,1.01,5.4-.12,.05-1.14-2.26-1.53-5.33-.41-3.07-.02-5.57,.11-5.54Z"/>
        </g>
        <g>
          <path class="cls-15" d="M381.53,177.84l-24.65-7.61c-29.74,37.87-27.75,79.48,20.12,104.1l26.56-29.78-22.03-66.72Z"/>
          <g>
            <path class="cls-7" d="M383.93,171.8c-15.78,9.2-23.62,28.6-21.7,47.57,2.11,20.82,15.87,41.12,41.08,46.73l169.53-33.89c29.6-5.92,47.79-35.9,39.37-64.89h0c-7.68-26.43-34.78-42.16-61.54-35.71l-166.75,40.19Z"/>
            <path class="cls-15" d="M383.93,171.8s.53-.15,1.57-.41c1.05-.26,2.6-.64,4.63-1.14,4.08-1,10.09-2.46,17.83-4.35,15.5-3.76,37.92-9.19,65.61-15.9,13.86-3.35,29.03-7.02,45.32-10.96,8.15-1.97,16.57-4,25.25-6.1,2.17-.52,4.36-1.05,6.56-1.58,1.12-.21,2.24-.43,3.36-.64,.56-.1,1.12-.22,1.69-.31l1.72-.16c1.15-.09,2.3-.23,3.46-.29,1.16,0,2.32,.02,3.49,.02,1.17-.04,2.33,.13,3.5,.25l1.76,.18,.88,.09,.87,.17c1.16,.23,2.32,.47,3.49,.7,1.16,.27,2.29,.67,3.44,1,.57,.18,1.15,.33,1.72,.53l1.67,.68,1.68,.68c.56,.22,1.12,.45,1.65,.75,1.08,.56,2.15,1.12,3.24,1.68,1.07,.59,2.06,1.3,3.1,1.95,.51,.34,1.04,.65,1.54,1.01l1.45,1.14,1.46,1.14,.73,.57,.67,.64c7.39,6.6,12.95,15.55,15.56,25.53,2.63,9.96,2.21,20.92-1.52,30.9-3.67,9.98-10.58,18.95-19.66,25.05-3.8,2.59-7.96,4.61-12.27,6.06-4.31,1.51-8.8,2.17-13.17,3.09-8.78,1.75-17.45,3.49-26,5.2-17.1,3.41-33.71,6.73-49.68,9.92-31.95,6.37-61.37,12.24-87.18,17.39h-.04s-.04,0-.04,0c-4.54-1.09-8.88-2.59-12.87-4.57-3.95-2.06-7.56-4.52-10.76-7.28-3.14-2.84-5.84-5.95-8.15-9.21-2.22-3.31-4.06-6.73-5.49-10.18-.37-.86-.64-1.75-.97-2.61-.32-.86-.63-1.72-.85-2.6-.24-.87-.49-1.73-.73-2.58-.18-.87-.36-1.73-.54-2.58-.19-.85-.35-1.7-.45-2.55-.11-.85-.23-1.68-.34-2.51-.09-.83-.12-1.66-.19-2.48-.07-.82-.11-1.63-.1-2.43-.1-6.43,.85-12.3,2.47-17.35,1.59-5.06,3.75-9.29,6.02-12.69,2.27-3.4,4.63-5.98,6.72-7.84,.52-.47,1-.93,1.48-1.32,.49-.38,.95-.72,1.37-1.05,.42-.32,.81-.62,1.17-.89,.38-.24,.72-.46,1.02-.65,1.22-.77,1.85-1.15,1.85-1.15,0,0-.61,.42-1.82,1.2-.3,.2-.64,.42-1.01,.66-.35,.27-.74,.57-1.16,.9-.42,.33-.87,.68-1.36,1.06-.47,.39-.94,.86-1.46,1.32-2.07,1.87-4.41,4.45-6.65,7.85-2.25,3.39-4.39,7.62-5.95,12.66-1.59,5.02-2.52,10.88-2.41,17.27-.01,.8,.03,1.61,.1,2.42,.06,.81,.1,1.64,.19,2.46,.11,.82,.23,1.66,.34,2.5,.09,.84,.26,1.69,.45,2.53,.18,.85,.36,1.7,.55,2.56,.24,.85,.48,1.7,.73,2.57,.22,.87,.53,1.72,.85,2.58,.32,.85,.6,1.73,.97,2.59,1.43,3.43,3.27,6.82,5.48,10.11,2.3,3.22,4.99,6.31,8.11,9.13,3.18,2.74,6.76,5.17,10.69,7.21,3.97,1.96,8.27,3.44,12.79,4.52h-.08c25.8-5.17,55.22-11.07,87.16-17.47,15.97-3.2,32.58-6.52,49.68-9.94,8.55-1.71,17.22-3.45,26-5.2,4.38-.92,8.85-1.58,13.11-3.07,4.27-1.44,8.38-3.44,12.14-6,8.99-6.03,15.83-14.91,19.47-24.79,3.69-9.88,4.11-20.73,1.51-30.59-2.58-9.88-8.08-18.74-15.4-25.28l-.67-.63-.72-.57-1.44-1.13-1.44-1.13c-.49-.36-1.02-.67-1.52-1.01-1.03-.64-2.02-1.35-3.07-1.93-1.07-.56-2.14-1.11-3.2-1.67-.52-.3-1.08-.52-1.64-.74l-1.66-.68-1.66-.67c-.56-.2-1.14-.35-1.7-.53-1.14-.33-2.26-.72-3.41-.99-1.16-.23-2.31-.47-3.46-.7l-.86-.17-.87-.09-1.74-.18c-1.16-.11-2.31-.29-3.47-.25-1.16,0-2.31-.02-3.46-.03-1.15,.05-2.29,.19-3.43,.28l-1.7,.15c-.56,.09-1.12,.21-1.68,.31-1.11,.21-2.23,.42-3.33,.63-2.2,.53-4.39,1.05-6.56,1.57-8.68,2.09-17.1,4.11-25.25,6.07-16.29,3.91-31.47,7.56-45.32,10.89-27.71,6.64-50.14,12.02-65.65,15.74-7.75,1.85-13.77,3.28-17.86,4.26-2.04,.48-3.6,.85-4.65,1.09-1.05,.24-1.59,.36-1.59,.36Z"/>
          </g>
          <path class="cls-8" d="M403.31,266.11l-22.36,50.85s105.5-10.18,101-66.57l-78.65,15.72Z"/>
          <path class="cls-8" d="M463.77,152.56s-50.72-49.23-115.21-28.49l35.37,47.73,79.84-19.24Z"/>
          <path class="cls-8" d="M556.38,130.91c21.77,16.06,35.08,78.57,24.59,98.43,61.7-18.05,74.64-71.02,74.64-71.02-44.6-41.52-99.23-27.41-99.23-27.41Z"/>
          <path class="cls-5" d="M371.59,242.85c.11,.09-3.28,4.15-7.58,9.06-4.29,4.91-7.86,8.81-7.97,8.72-.11-.09,3.28-4.15,7.58-9.06,4.29-4.91,7.86-8.81,7.97-8.72Z"/>
          <path class="cls-15" d="M655.61,158.33s-.12,.23-.38,.67c-.27,.45-.66,1.1-1.17,1.94-.52,.86-1.16,1.91-1.91,3.16-.38,.62-.79,1.29-1.22,2.01-.48,.69-.99,1.42-1.53,2.2-1.09,1.55-2.28,3.28-3.64,5.15-1.45,1.8-3.02,3.75-4.71,5.84-.89,1.01-1.85,2.02-2.82,3.08-.99,1.04-1.94,2.19-3.05,3.23-2.22,2.1-4.5,4.39-7.15,6.5-5.2,4.34-11.35,8.6-18.47,12.19-3.55,1.83-7.36,3.43-11.36,4.86-1.99,.73-4.06,1.36-6.09,2.1-2.05,.71-4.29,1.16-6.45,1.65-17.48,3.87-36.76,7.83-56.98,12.03-40.47,8.36-77.13,15.82-103.67,21.18-13.26,2.67-24,4.82-31.44,6.32-3.7,.73-6.58,1.3-8.55,1.69-.97,.19-1.71,.33-2.23,.43-.5,.09-.76,.13-.76,.13,0,0,.25-.07,.75-.18,.51-.11,1.25-.27,2.22-.48,1.97-.41,4.84-1.01,8.53-1.78,7.43-1.53,18.15-3.75,31.4-6.48,26.53-5.46,63.16-13,103.63-21.33,20.22-4.2,39.5-8.15,56.98-11.99,2.2-.5,4.32-.91,6.38-1.62,2.07-.75,4.12-1.37,6.11-2.1,3.99-1.41,7.78-3,11.32-4.81,7.1-3.56,13.24-7.78,18.43-12.09,2.66-2.1,4.94-4.37,7.16-6.45,1.12-1.03,2.07-2.18,3.06-3.21,.97-1.06,1.93-2.06,2.82-3.06,1.7-2.08,3.28-4.02,4.73-5.8,1.36-1.85,2.56-3.58,3.67-5.11,.55-.77,1.06-1.5,1.55-2.18,.44-.71,.86-1.38,1.24-2,.77-1.23,1.42-2.28,1.95-3.13,.53-.83,.93-1.47,1.21-1.92,.28-.43,.43-.64,.43-.64Z"/>
          <path class="cls-15" d="M495.04,247.84s-.07-.06-.18-.2c-.13-.16-.29-.37-.49-.62-.44-.58-1.06-1.39-1.83-2.41-.4-.53-.84-1.11-1.32-1.75-.46-.65-.93-1.39-1.45-2.16-1.02-1.57-2.26-3.3-3.39-5.37-.59-1.02-1.21-2.09-1.85-3.2-.64-1.12-1.2-2.33-1.83-3.56-1.31-2.44-2.44-5.18-3.69-8.03-2.32-5.77-4.48-12.28-6.07-19.29-1.53-7.03-2.34-13.84-2.69-20.05-.08-3.11-.22-6.07-.07-8.83,.05-1.38,.05-2.72,.15-4,.11-1.28,.22-2.51,.32-3.68,.15-2.35,.54-4.45,.79-6.3,.14-.92,.25-1.79,.39-2.57,.16-.78,.31-1.49,.45-2.14,.27-1.25,.48-2.24,.64-2.96,.07-.31,.13-.56,.18-.77,.04-.17,.07-.26,.08-.26s0,.09-.03,.27c-.03,.2-.08,.46-.13,.78-.13,.72-.31,1.71-.54,2.97-.12,.65-.26,1.36-.4,2.15-.13,.79-.22,1.65-.35,2.57-.23,1.85-.59,3.94-.71,6.29-.09,1.17-.19,2.39-.28,3.67-.09,1.28-.08,2.61-.12,3.99-.13,2.76,.02,5.7,.11,8.8,.37,6.19,1.19,12.97,2.72,19.96,1.59,6.98,3.72,13.46,6.01,19.22,1.23,2.84,2.34,5.57,3.63,8.01,.63,1.23,1.18,2.44,1.8,3.56,.63,1.11,1.24,2.18,1.81,3.2,1.11,2.07,2.32,3.81,3.31,5.39,.51,.78,.96,1.52,1.41,2.18,.46,.64,.89,1.24,1.28,1.77,.74,1.04,1.33,1.87,1.75,2.46,.18,.26,.33,.48,.45,.65,.1,.15,.15,.23,.14,.23Z"/>
          <path class="cls-8" d="M447.42,195.37l-106.32,22.01s-.48,10.38,2.13,10.47c2.18,.07,81.24-14.2,106.88-18.84,4.19-.76,6.69-5.07,5.3-9.1h0c-1.14-3.31-4.56-5.25-7.98-4.54Z"/>
        </g>
        <g>
          <ellipse class="cls-2" cx="528.86" cy="185.55" rx="23.62" ry="25.41" transform="translate(342.57 714.15) rotate(-89.92)"/>
          <path class="cls-15" d="M554.27,185.59s-.02-.13-.05-.4c-.02-.29-.05-.67-.09-1.16-.02-.26-.04-.54-.06-.86-.05-.31-.11-.65-.18-1.02-.06-.37-.13-.77-.21-1.19-.09-.42-.24-.86-.36-1.32-.22-.95-.66-1.94-1.09-3.03-.53-1.05-1.08-2.21-1.88-3.34-1.53-2.28-3.69-4.62-6.56-6.57-2.85-1.93-6.39-3.54-10.42-4.16-1.01-.14-2.03-.32-3.08-.32-.52-.02-1.05-.06-1.59-.06-.53,.03-1.07,.05-1.61,.08l-.81,.04-.81,.12c-.54,.08-1.09,.15-1.64,.23-.54,.13-1.09,.26-1.63,.39l-.82,.2-.81,.28c-4.33,1.39-8.56,4.05-11.7,7.9-3.22,3.78-5.1,8.87-5.17,14.12,.05,5.26,1.92,10.35,5.13,14.14,3.13,3.86,7.35,6.53,11.68,7.94l.81,.28,.82,.2c.55,.13,1.09,.26,1.63,.39,.55,.08,1.1,.16,1.64,.24l.81,.12,.81,.04c.54,.03,1.08,.05,1.61,.08,.53,0,1.06-.04,1.59-.05,1.05,0,2.07-.18,3.08-.32,4.03-.61,7.57-2.2,10.43-4.13,2.87-1.94,5.04-4.27,6.57-6.55,.8-1.12,1.36-2.28,1.89-3.33,.44-1.09,.88-2.08,1.1-3.03,.13-.47,.27-.9,.37-1.32,.07-.42,.14-.82,.21-1.19,.07-.37,.13-.71,.18-1.02,.02-.31,.04-.6,.06-.86,.04-.49,.07-.88,.09-1.16,.02-.26,.04-.4,.05-.4s.01,.13,0,.4c0,.29-.02,.68-.04,1.17-.01,.26-.02,.55-.04,.86-.05,.32-.1,.66-.16,1.03-.06,.37-.12,.77-.19,1.2-.09,.42-.22,.87-.35,1.34-.21,.96-.64,1.96-1.07,3.08-.52,1.07-1.07,2.25-1.87,3.39-1.53,2.32-3.71,4.7-6.61,6.69-2.89,1.97-6.48,3.61-10.57,4.25-1.02,.15-2.06,.32-3.13,.33-.53,.02-1.07,.07-1.61,.06-.54-.03-1.09-.05-1.64-.08l-.83-.04-.83-.12c-.55-.08-1.11-.16-1.67-.24-.55-.13-1.11-.26-1.66-.39l-.84-.2-.82-.28c-4.41-1.42-8.72-4.13-11.92-8.07-3.29-3.87-5.21-9.09-5.26-14.47,.07-5.38,2-10.59,5.3-14.45,3.21-3.93,7.53-6.63,11.94-8.03l.82-.28,.84-.2c.56-.13,1.11-.26,1.66-.39,.56-.08,1.12-.16,1.67-.23l.83-.11,.83-.04c.55-.02,1.1-.05,1.64-.07,.54,0,1.08,.04,1.61,.06,1.07,.01,2.11,.19,3.13,.34,4.09,.65,7.67,2.3,10.56,4.28,2.89,2,5.07,4.39,6.59,6.71,.8,1.14,1.34,2.33,1.86,3.4,.43,1.11,.85,2.12,1.06,3.08,.12,.47,.26,.92,.34,1.34,.07,.43,.13,.83,.18,1.2,.06,.37,.11,.71,.15,1.03,.01,.31,.02,.6,.03,.86,.02,.49,.03,.88,.04,1.17,0,.26,0,.4,0,.4Z"/>
        </g>
      </g>
    </g>
    <g>
      <path class="cls-8" d="M228.26,270.93c-2.93,1.3-6.29,1.14-9.47,.78-3.19-.36-6.43-.88-9.57-.26-4.88,.97-9.18,4.64-14.15,4.38-6.89-.36-11.01-7.78-17.09-11.04-7.4-3.97-17.33-1.5-23.29-8.86-3.6-4.45-4.21-10.76-1.43-15.76,4.33-7.78,14.3-9.08,22.13-6.26,6.71,2.41,12.2,7.3,17.43,12.14,1.78,1.64,3.56,3.31,5.4,4.9,5.93,5.13,13.73,7.56,21.53,6.78h0c3.76-.37,7.5,.73,10.44,3.05,.8,.63,1.42,1.46,1.82,2.39h0c.4,.91,.62,1.9,.52,2.88-.24,2.41-1.89,3.83-4.27,4.88Z"/>
      <g class="cls-9">
        <path class="cls-1" d="M228.26,270.93c-2.93,1.3-6.29,1.14-9.47,.78-3.19-.36-6.43-.88-9.57-.26-4.88,.97-9.18,4.64-14.15,4.38-6.89-.36-11.01-7.78-17.09-11.04-7.4-3.97-17.33-1.5-23.29-8.86-3.6-4.45-4.21-10.76-1.43-15.76,4.33-7.78,14.3-9.08,22.13-6.26,6.71,2.41,12.2,7.3,17.43,12.14,1.78,1.64,3.56,3.31,5.4,4.9,5.93,5.13,13.73,7.56,21.53,6.78h0c3.76-.37,7.5,.73,10.44,3.05,.8,.63,1.42,1.46,1.82,2.39h0c.4,.91,.62,1.9,.52,2.88-.24,2.41-1.89,3.83-4.27,4.88Z"/>
      </g>
    </g>
    <g>
      <path class="cls-8" d="M115.11,267.61c-1.98-3.47-8.03-3.55-11.62-1.8-3.59,1.75-6.07,5.12-8.51,8.29-2.44,3.17-5.18,6.41-8.96,7.7-4.06,1.39-8.5,.28-12.79,.31-4.29,.04-9.33,2.08-9.97,6.33-.36,2.4,.35,5.2,2.14,6.84,1.79,1.64,3.67,2.91,5.92,3.83,5.47,2.24,12.12,3.57,18.03,3.52,7.9-.07,15.66-4.06,20.32-10.43,4.66-6.38,10.91-17.48,5.44-24.61"/>
      <g class="cls-9">
        <path class="cls-1" d="M115.11,267.61c-1.98-3.47-8.03-3.55-11.62-1.8-3.59,1.75-6.07,5.12-8.51,8.29-2.44,3.17-5.18,6.41-8.96,7.7-4.06,1.39-8.5,.28-12.79,.31-4.29,.04-9.33,2.08-9.97,6.33-.36,2.4,.35,5.2,2.14,6.84,1.79,1.64,3.67,2.91,5.92,3.83,5.47,2.24,12.12,3.57,18.03,3.52,7.9-.07,15.66-4.06,20.32-10.43,4.66-6.38,10.91-17.48,5.44-24.61"/>
      </g>
    </g>
    <g>
      <path class="cls-8" d="M6.11,288.02c-1.76,.72-3.47,1.67-4.68,3.13-1.2,1.46-1.82,3.52-1.19,5.31s2.71,3.06,4.51,2.44c.95-.33,1.73-1.1,2.72-1.27,1.58-.26,2.96,1.1,4.54,1.38,2.35,.41,4.56-1.95,4.54-4.34-.02-2.39-1.96-4.19-3.89-5.6-2.54-1.85-5.63-1.38-6.56-1.05"/>
      <g class="cls-9">
        <path class="cls-1" d="M6.11,288.02c-1.76,.72-3.47,1.67-4.68,3.13-1.2,1.46-1.82,3.52-1.19,5.31s2.71,3.06,4.51,2.44c.95-.33,1.73-1.1,2.72-1.27,1.58-.26,2.96,1.1,4.54,1.38,2.35,.41,4.56-1.95,4.54-4.34-.02-2.39-1.96-4.19-3.89-5.6-2.54-1.85-5.63-1.38-6.56-1.05"/>
      </g>
    </g>
    <g>
      <path class="cls-5" d="M442.76,124.79c-8.18-.41-12.2,5.76-16.77,7-4.57,1.24-9.56,1.45-13.95-.33-5.7-2.31-9.59-7.56-14.58-11.16-10.01-7.21-24.84-6.78-34.42,.99-.23,5.45,4.44,9.75,8.95,12.82s17.03,7.46,18.63,12.68c1.2,3.9-7.22,7.18-5.1,10.68,2.03,3.36,9.13,3.14,13,2.47,24.42-4.2,15.86,3.27,23.42,2.57,0,0,15.83-4.03,28.24-6.06"/>
      <g>
        <polyline class="cls-13" points="525.06 268.57 517.13 250.13 534.06 242.8 539.95 265.93 525.78 268.57"/>
        <g>
          <g>
            <path class="cls-8" d="M539.94,262.93l4.96,16.14s18.07,.38,19.28,3.28l-30.96,10.73-8.75-24.84,15.48-5.32Z"/>
            <g class="cls-3">
              <path class="cls-1" d="M534.86,281.05c-.54,.37-.72,1.19-.37,1.75,.35,.56,1.18,.75,1.73,.39,.55-.36,.8-1.34,.39-1.85-.41-.51-1.4-.69-1.84-.2"/>
            </g>
            <g class="cls-3">
              <path class="cls-1" d="M533.22,293.09l-.78-2.54,29.98-9.34s1.59,.12,1.77,1.15l-30.96,10.73Z"/>
            </g>
            <path class="cls-15" d="M545.35,278.74c.05,.15-.68,.48-1.26,1.23-.59,.73-.75,1.52-.91,1.51-.15,.02-.24-.96,.47-1.85,.7-.89,1.68-1.03,1.7-.88Z"/>
            <path class="cls-15" d="M549.06,278.96c.09,.13-.48,.62-.77,1.44-.32,.81-.21,1.54-.36,1.59-.13,.07-.55-.78-.16-1.79,.37-1.01,1.24-1.38,1.29-1.24Z"/>
            <path class="cls-15" d="M552.25,282.21c-.13,.08-.6-.6-.5-1.56,.09-.96,.69-1.54,.8-1.43,.13,.09-.18,.7-.25,1.49-.09,.79,.09,1.44-.06,1.51Z"/>
            <path class="cls-15" d="M543.81,275.19c-.02,.16-.78,.19-1.62,.55-.84,.34-1.41,.85-1.53,.75-.13-.08,.33-.86,1.32-1.27,.98-.41,1.86-.18,1.83-.03Z"/>
          </g>
          <path class="cls-15" d="M542.75,271.95c.02,.06-.54,.36-1.55,.53-.5,.08-1.12,.12-1.79,.06-.34-.03-.69-.08-1.05-.16-.17-.04-.38-.08-.59-.2-.22-.1-.46-.47-.35-.78,.08-.29,.32-.49,.54-.58,.23-.09,.43-.1,.61-.12,.37-.04,.74-.03,1.08,0,.68,.06,1.28,.24,1.76,.44,.95,.42,1.39,.9,1.35,.94-.05,.07-.56-.28-1.49-.57-.46-.15-1.02-.27-1.65-.3-.32-.01-.65,0-.99,.03-.36,.03-.64,.12-.67,.3-.01,.07,0,.09,.09,.16,.1,.06,.26,.1,.44,.15,.34,.08,.67,.14,.98,.18,.63,.08,1.21,.08,1.7,.05,.97-.06,1.57-.22,1.6-.14Z"/>
          <path class="cls-15" d="M542.63,272.23s-.53-.4-.93-1.36c-.19-.48-.35-1.08-.38-1.77-.01-.34,0-.71,.07-1.08,.08-.37,.15-.86,.72-1.13,.3-.12,.64,.03,.8,.21,.17,.17,.26,.35,.36,.51,.18,.34,.3,.7,.36,1.04,.13,.69,.05,1.33-.11,1.83-.33,1.01-.9,1.41-.93,1.36-.08-.06,.35-.53,.54-1.46,.1-.46,.13-1.03-.01-1.63-.07-.3-.18-.6-.34-.89-.16-.31-.38-.53-.49-.46-.15,.05-.33,.39-.37,.7-.06,.33-.09,.66-.09,.97,0,.63,.1,1.19,.24,1.65,.27,.92,.63,1.43,.56,1.48Z"/>
        </g>
        <path class="cls-15" d="M444.09,125.41s-14.67,29.05-4.81,35.86,55.91,41.42,55.91,41.42l23.49,62.69,21.99-9.01-18.33-73.42-46.27-41.56-31.98-15.97Z"/>
        <path class="cls-5" d="M500.59,191.16c.13,.1-1.39,2.12-2.52,4.98-1.16,2.85-1.45,5.37-1.61,5.35-.13,0-.07-2.6,1.12-5.54,1.17-2.95,2.92-4.88,3-4.79Z"/>
        <path class="cls-5" d="M496.95,190.55c.15,.04-.5,2.43-.73,5.44-.25,3.02,.03,5.47-.12,5.49-.13,.03-.65-2.45-.4-5.53,.23-3.08,1.13-5.45,1.25-5.4Z"/>
        <path class="cls-5" d="M520.9,264.46s-.06-.1-.14-.31c-.09-.23-.22-.54-.38-.93-.33-.85-.81-2.07-1.41-3.63-1.22-3.16-2.96-7.76-5.08-13.5-2.11-5.75-4.63-12.63-7.26-20.41-.66-1.94-1.31-3.95-1.95-6.01-.62-2.08-1.22-4.17-2.08-6.25-1.67-4.16-3.69-8.39-5.88-12.67l.06,.08c-2.47-2.09-5.08-4.29-7.75-6.49-2.09-1.71-4.16-3.4-6.25-5-2.1-1.59-4.17-3.16-6.2-4.71-4.06-3.09-7.98-6.05-11.81-8.76-3.81-2.73-7.58-5.09-11.02-7.46-3.44-2.37-6.56-4.73-9.08-7.25-1.26-1.26-2.37-2.57-3.21-3.94-.85-1.37-1.42-2.81-1.76-4.19-.67-2.78-.45-5.27-.09-7.22,.39-1.95,.9-3.42,1.28-4.39,.18-.49,.35-.85,.45-1.1,.11-.25,.17-.37,.17-.37,0,0-.03,.13-.12,.39-.09,.25-.24,.62-.4,1.12-.34,.98-.82,2.45-1.17,4.39-.32,1.93-.51,4.4,.17,7.11,.34,1.35,.91,2.75,1.76,4.08,.84,1.34,1.94,2.62,3.19,3.86,2.51,2.48,5.63,4.81,9.06,7.15,3.44,2.34,7.23,4.7,11.05,7.43,3.84,2.7,7.77,5.66,11.84,8.75,2.03,1.54,4.1,3.11,6.2,4.7,2.1,1.6,4.18,3.29,6.27,5.01,2.68,2.2,5.29,4.4,7.76,6.5l.04,.03,.02,.04c2.2,4.3,4.21,8.53,5.88,12.73,.86,2.09,1.47,4.24,2.08,6.29,.63,2.06,1.28,4.06,1.93,6.01,2.6,7.78,5.08,14.67,7.15,20.43,2.09,5.73,3.77,10.34,4.94,13.55,.57,1.57,1.02,2.8,1.33,3.66,.14,.4,.25,.71,.33,.95,.07,.21,.11,.33,.1,.33Z"/>
      </g>
      <polygon class="cls-15" points="462.18 134.7 490.54 138.72 505.08 142.41 485.17 149.56 462.18 134.7"/>
      <path class="cls-15" d="M427.46,132.65s-.18,.27-.59,.68c-.4,.42-1.02,.98-1.82,1.64-1.6,1.31-4.01,2.89-6.93,4.12-2.92,1.22-5.75,1.82-7.8,2.04-1.03,.11-1.86,.16-2.44,.14-.58,0-.9-.03-.9-.06,0-.09,1.27-.14,3.29-.45,2.02-.31,4.78-.96,7.65-2.15,2.87-1.2,5.27-2.71,6.91-3.93,1.64-1.22,2.57-2.09,2.63-2.02Z"/>
      <g>
        <path class="cls-8" d="M447.82,91.13l-5.46,41.12s18.18-1.18,31.01,3.07c12.82,4.26,20.7,4.14,20.7,4.14l-2.68-25.58,9.57-20.96,4.21,24.55,19.66,20.24,12.81-2.9-13.27-22.24-9.22-45.32s0-.03-.01-.05c-.77-3.77-2.83-7.17-5.8-9.62l-.37-.3-19.3-10.76-6.48,.13c-7.15,.19-12.66,.97-16.33,1.67-3.27,.63-6.56,2.29-8.83,4.73h0c-1.59,1.71-3.63,4.89-4.5,8.41l-5.7,29.67Z"/>
        <path class="cls-15" d="M509.13,73.93s-.14,.48-.47,1.32c-.38,.92-.88,2.11-1.47,3.52-1.26,2.97-3.03,7.05-5.01,11.55-1.98,4.45-3.77,8.47-5.12,11.5-.64,1.39-1.17,2.56-1.59,3.47-.39,.82-.59,1.25-.63,1.25-.04,0,.11-.5,.44-1.33,.33-.84,.82-2.05,1.44-3.54,1.24-2.97,3-7.06,4.99-11.57,1.98-4.5,3.8-8.56,5.15-11.49,.65-1.39,1.19-2.55,1.62-3.46,.39-.81,.63-1.25,.66-1.24Z"/>
        <g>
          <path class="cls-8" d="M454.61,66.77c3.76,10.47,10.99,34.41,14.52,43.63,1.08,2.81,2.88,5.27,5.24,7.14l39.02,27.59,9.02-11.71-29.23-28.2-15.75-46.69c-2.22-6.24-11.43-9.61-17.15-6.28h0c-4.41,2.57-7.38,9.72-5.66,14.52Z"/>
          <path class="cls-15" d="M478.11,60.46s.12,.27,.31,.81c.2,.56,.47,1.35,.83,2.37,.72,2.11,1.78,5.16,3.11,9.05,2.66,7.83,6.46,19.01,11.03,32.45l-.06-.09c8.57,8.26,18.55,17.87,29.26,28.17l.17,.16-.14,.18c-2.07,2.69-4.26,5.54-6.48,8.42-.87,1.13-1.73,2.25-2.53,3.29l-.15,.2-.2-.15c-10.65-7.67-20.76-14.96-29.94-21.57-2.29-1.65-4.53-3.27-6.69-4.83-.54-.39-1.08-.78-1.61-1.17-.53-.37-1.07-.77-1.55-1.23-.97-.89-1.8-1.9-2.49-2.97-.69-1.06-1.21-2.22-1.63-3.35-.44-1.13-.87-2.23-1.29-3.32-.82-2.17-1.6-4.27-2.32-6.27-2.88-8.01-4.99-14.55-6.43-19.06-.7-2.25-1.24-4-1.62-5.21-.17-.58-.31-1.03-.4-1.36-.09-.31-.12-.47-.12-.47,0,0,.07,.15,.17,.45,.11,.32,.26,.77,.45,1.34,.4,1.2,.97,2.95,1.71,5.18,1.5,4.5,3.66,11.01,6.58,19,.73,2,1.51,4.08,2.35,6.25,.42,1.08,.86,2.18,1.3,3.31,.43,1.13,.93,2.23,1.61,3.27,.67,1.04,1.48,2.01,2.42,2.87,.46,.44,.98,.82,1.52,1.2,.54,.38,1.07,.77,1.62,1.16,2.17,1.56,4.41,3.16,6.71,4.81,9.18,6.6,19.3,13.86,29.96,21.52l-.36,.05c.8-1.04,1.67-2.16,2.53-3.29,2.22-2.88,4.41-5.73,6.48-8.42l.03,.34c-10.68-10.32-20.64-19.95-29.2-28.22l-.04-.04-.02-.05c-4.5-13.47-8.23-24.67-10.85-32.51-1.29-3.9-2.3-6.97-3-9.09-.33-1.03-.59-1.83-.77-2.4-.17-.54-.24-.83-.24-.83Z"/>
        </g>
        <path class="cls-15" d="M474.38,54.77c-.06,.06-.71-.62-1.99-1.41-1.26-.79-3.21-1.61-5.47-1.72-2.27-.11-4.29,.53-5.61,1.19-1.34,.66-2.05,1.28-2.11,1.21-.04-.04,.6-.77,1.94-1.54,1.32-.77,3.43-1.5,5.81-1.39,2.38,.12,4.41,1.04,5.65,1.94,1.26,.9,1.83,1.68,1.78,1.72Z"/>
        <path class="cls-15" d="M525.2,113.13c-.02,.16-1.85-.03-4,.5-2.16,.51-3.7,1.52-3.79,1.38-.09-.09,1.39-1.35,3.66-1.89,2.27-.56,4.16-.12,4.12,0Z"/>
        <path class="cls-2" d="M459.71,82.53s-.14,.05-.39,.1c-.25,.06-.62,.11-1.08,.17-.92,.1-2.22,.11-3.6-.23-1.38-.35-2.52-.98-3.28-1.5-.38-.26-.68-.49-.87-.66-.2-.17-.3-.27-.29-.28,.05-.1,1.77,1.54,4.5,2.23,2.73,.66,5.03,.05,5.02,.16Z"/>
        <path class="cls-2" d="M462.75,91.45s-.65-.52-1.85-1.09c-1.19-.59-2.97-1.12-4.98-1.27-2.02-.16-3.86,0-5.19,.12-.56,.05-1.08,.1-1.57,.14-.37,.03-.58,.04-.58,.03,0-.01,.2-.05,.57-.11,.37-.06,.9-.13,1.57-.21,1.32-.15,3.17-.34,5.22-.18,2.04,.16,3.85,.72,5.03,1.35,.6,.31,1.05,.61,1.34,.84,.3,.23,.45,.37,.44,.38Z"/>
        <g class="cls-10">
          <path d="M457.71,76.3s1.05,15.64,2.17,22.87,3.45,14.59,8.63,19.76c5.21,5.21,12.63,7.51,19.85,8.97-2.33-1.76-4.62-3.57-6.86-5.44-2.89-2.41-7.14-4.75-9.46-7.71-4.48-5.69-5.45-12.88-7.76-19.75-2.13-6.33-4.44-12.36-6.56-18.69"/>
        </g>
        <path class="cls-2" d="M484.88,82.44s-.26,.21-.83,.41c-.56,.21-1.42,.4-2.49,.37-2.15,.03-5-1.01-8.24-.7-3.23,.22-6,1.41-7.79,2.5-.91,.54-1.58,1.08-2.05,1.44-.19,.16-.36,.3-.52,.44-.12,.1-.19,.15-.19,.14,0,0,.87-1.01,2.69-2.15,1.79-1.13,4.58-2.36,7.85-2.58,3.29-.31,6.15,.76,8.26,.77,1.06,.05,1.91-.11,2.46-.3,.56-.18,.84-.37,.86-.34Z"/>
        <path class="cls-2" d="M481.97,74.85s-.06,.05-.19,.13c-.18,.1-.37,.21-.57,.33-.5,.29-1.24,.67-2.17,1.11-1.86,.88-4.53,1.92-7.6,2.65-3.07,.72-5.92,1-7.98,1.05-1.03,.03-1.86,.02-2.44-.02-.24-.01-.45-.03-.66-.04-.15-.01-.23-.02-.23-.03s.08-.01,.23-.01c.21,0,.43,0,.66,0,.57,0,1.41,0,2.43-.05,2.05-.09,4.88-.39,7.93-1.11,3.05-.73,5.71-1.73,7.58-2.58,.94-.42,1.69-.78,2.19-1.05,.21-.11,.41-.2,.59-.3,.14-.07,.21-.1,.21-.09Z"/>
        <path class="cls-2" d="M504.12,83.05s-.09-.01-.27-.06c-.18-.04-.44-.12-.75-.26-.64-.27-1.53-.77-2.44-1.61-1.9-1.62-3.65-4.66-6.6-7.01-2.93-2.37-6.17-3.65-8.55-4.22-1.19-.3-2.19-.42-2.87-.51-.29-.03-.55-.05-.79-.07-.18-.02-.28-.03-.28-.04,0,0,1.55-.07,3.97,.48,2.41,.54,5.69,1.8,8.65,4.2,1.48,1.18,2.69,2.55,3.71,3.82,1.03,1.27,1.96,2.41,2.86,3.24,.89,.85,1.76,1.36,2.38,1.65,.62,.29,1,.37,.99,.4Z"/>
        <path class="cls-2" d="M502.95,87.82s-.3-.06-.83-.24c-.52-.21-1.25-.59-2.02-1.23-.78-.63-1.59-1.52-2.45-2.51-.86-.99-1.8-2.1-2.98-3.04-1.19-.93-2.55-1.48-3.84-1.65-1.29-.2-2.48-.15-3.47-.07-.99,.08-1.79,.21-2.34,.28-.23,.03-.44,.06-.64,.09-.15,.02-.22,.02-.22,.02,0,0,.07-.03,.22-.06,.2-.04,.41-.08,.63-.13,.55-.1,1.34-.25,2.34-.35,.99-.1,2.19-.17,3.51,.02,1.32,.17,2.73,.73,3.94,1.68,1.2,.96,2.14,2.09,3,3.08,.85,1,1.64,1.88,2.4,2.52,.75,.65,1.46,1.04,1.96,1.26,.51,.2,.81,.3,.8,.32Z"/>
        <path class="cls-2" d="M518.27,84.6s-.83-.33-2.22-.22c-.69,.05-1.5,.23-2.37,.53-.87,.3-1.78,.74-2.75,1.18-.97,.44-1.93,.82-2.84,1.02-.91,.2-1.77,.23-2.47,.13-.7-.1-1.24-.32-1.58-.52-.34-.2-.5-.36-.5-.36,.02-.05,.71,.57,2.1,.73,.68,.08,1.52,.04,2.41-.17,.89-.21,1.83-.59,2.8-1.03,.97-.44,1.89-.87,2.78-1.17,.88-.3,1.71-.46,2.42-.5,.71-.03,1.28,.05,1.66,.16,.38,.1,.57,.21,.57,.21Z"/>
        <path class="cls-2" d="M519.85,90.04c-.02,.07-.89-.88-2.76-.97-.91-.05-2.01,.12-3.14,.57-1.13,.45-2.25,1.18-3.41,1.99-1.16,.8-2.27,1.58-3.39,2.11-1.12,.53-2.22,.8-3.15,.84-.94,.05-1.69-.12-2.17-.32-.49-.2-.71-.38-.71-.38,0-.07,1.02,.69,2.88,.55,.91-.06,1.99-.35,3.08-.87,1.09-.52,2.19-1.3,3.35-2.11,1.16-.8,2.3-1.55,3.46-1.99,1.15-.45,2.28-.6,3.22-.53,.94,.07,1.66,.35,2.11,.62,.45,.27,.64,.49,.64,.49Z"/>
        <g class="cls-10">
          <path d="M503.22,106.14c2.04-8.19,2.44-17.06,2.73-25.49-.71,2.95-2.52,5.5-3.64,8.32-.54,1.35-1.39,3.79-1.39,3.79l2.26,13.18"/>
        </g>
      </g>
      <g>
        <g>
          <path class="cls-15" d="M490.02,9.8c-.2,1.51-1.32,2.85-2.76,3.32-.82,.27-1.72,.27-2.53,.58-.81,.31-1.56,1.1-1.38,1.94,.14,.63,.72,1.05,1.21,1.48,.48,.43,.92,1.11,.64,1.69-.3,.65-1.23,.7-1.71,1.23-.51,.56-.35,1.48,.11,2.07,.46,.59,1.15,.96,1.77,1.39,.62,.43,1.22,.99,1.36,1.73"/>
          <g>
            <path class="cls-15" d="M519.68,22.79c2.2-4.65,.6-10.44-2.83-14.28s-8.35-6-13.29-7.43c-.71-.2-1.59-.35-2.09,.2-.44,.48-.3,1.29,.13,1.78,.42,.49,1.05,.75,1.66,.99-2.01-.98-4.2-1.72-6.44-1.76-.78-.01-1.6,.07-2.26,.49-.66,.42-1.12,1.25-.89,2,.23,.75,1.29,1.17,1.86,.63-2.12-.23-4.31,.28-6.1,1.43-1.28,.83-2.45,2.24-2.14,3.73,.18,.88,.84,1.58,1.12,2.43,.53,1.55-.25,3.2-.84,4.73-.92,2.37-1.44,4.96-1.05,7.48s1.78,4.95,3.98,6.22"/>
            <g>
              <path class="cls-13" d="M489.01,62c-5.56-1.49-8.8-7.26-7.17-12.79l9.18-31.09c2.13-7.99,10.44-12.64,18.37-10.29l.72,.26c7.24,2.62,11.27,10.36,9.24,17.79-1.89,6.92-4.06,14.53-5.41,18.12-2.79,7.43-10.67,5.89-10.67,5.89l-1.94,5.57c-1.76,5.06-7.13,7.91-12.31,6.53h0Z"/>
              <path class="cls-11" d="M503.31,49.8s-4.85-1.32-8.73-6.28c0,0,.36,6.2,8.05,8.22l.68-1.94Z"/>
            </g>
            <path class="cls-15" d="M501.9,12.35c-.61-1.34-1.38-4.27-2.42-5.31-1.04-1.05-2.73-.7-4.15-.3-1.48,.42-2.66,1.54-3.19,2.98-1.96,5.38-2.2,10.45-3.67,15.74-.1,.35-.19,.72-.09,1.07,.28,.9,1.26,1.22,2.19,1.35,2.29,.33,3.46-1.34,4.54-3.35,.24-.45,.75-3.21,.79-3.72,.33-3.57,2.39-6.75,5.62-8.3l.36-.17Z"/>
            <g>
              <path class="cls-13" d="M492.31,22.41c-.11-.1-4.58-3.37-6.26,1.79-1.68,5.16,3.85,5.78,3.9,5.64s2.36-7.43,2.36-7.43Z"/>
              <path class="cls-11" d="M489.02,27.37s-.11,.03-.29,.05c-.17,.02-.44-.02-.68-.21-.48-.38-.66-1.39-.38-2.33,.14-.47,.38-.89,.67-1.21,.28-.33,.61-.51,.9-.47,.29,.03,.43,.25,.45,.42,.02,.17-.04,.26-.02,.28,.01,.02,.14-.05,.17-.28,.01-.11,0-.25-.1-.39-.09-.14-.26-.25-.45-.29-.41-.1-.88,.15-1.2,.49-.34,.34-.62,.8-.78,1.34-.31,1.05-.09,2.2,.59,2.66,.33,.21,.67,.2,.87,.13,.2-.08,.27-.18,.25-.2Z"/>
            </g>
            <path class="cls-15" d="M499.91,13.51c2.54-1.74,5.16-.88,6.91,.14,1.75,1.02,3.23,2.46,5.03,3.39,1.8,.93,4.14,1.25,5.75,.01,1.19-.91,1.69-2.48,1.82-3.97,.24-2.87-.72-5.82-2.62-7.99-.49-.57-1.25-1.12-1.94-.82-.85,.38-.72,1.61-.44,2.5,0,0-8.68-3.21-13.98-1.36-5.3,1.85-.53,8.09-.53,8.09Z"/>
            <path class="cls-5" d="M503.17,.98s.1,.37,.37,.99c.27,.62,.8,1.45,1.65,2.31,.86,.85,2.02,1.73,3.46,2.42,.72,.35,1.5,.62,2.36,.79,.85,.19,1.76,.32,2.68,.58,.92,.25,1.81,.65,2.5,1.27,.69,.61,1.21,1.35,1.51,2.14,.31,.78,.41,1.61,.31,2.35-.1,.75-.38,1.41-.75,1.93-.73,1.06-1.69,1.56-2.35,1.75-.34,.09-.61,.13-.79,.13-.18,0-.28,0-.28-.02,0-.04,.38-.05,1.02-.27,.62-.23,1.5-.76,2.14-1.76,.32-.49,.56-1.11,.64-1.79,.07-.69-.03-1.44-.33-2.16-.29-.72-.78-1.41-1.41-1.96-.64-.56-1.45-.92-2.34-1.17-.88-.24-1.79-.38-2.66-.58-.87-.19-1.71-.48-2.44-.85-1.48-.73-2.65-1.67-3.51-2.57-.85-.91-1.36-1.81-1.59-2.47-.1-.33-.18-.59-.19-.78-.02-.18-.03-.28-.01-.28Z"/>
            <path class="cls-5" d="M497.44,2.53s.13,.38,.42,1.03c.3,.64,.85,1.52,1.78,2.37,.93,.86,2.24,1.63,3.83,2.17,1.58,.56,3.41,.88,5.34,1.24,1.92,.37,3.78,.74,5.35,1.54,.77,.41,1.44,1.02,1.75,1.78,.31,.75,.29,1.53,.12,2.17-.36,1.32-1.26,2.05-1.85,2.44-.31,.2-.56,.32-.74,.39-.18,.07-.27,.1-.28,.08-.02-.04,.35-.2,.92-.62,.54-.42,1.35-1.16,1.64-2.37,.13-.59,.13-1.3-.15-1.95-.28-.65-.87-1.18-1.6-1.56-1.48-.73-3.33-1.09-5.24-1.46-1.92-.36-3.78-.7-5.39-1.29-1.62-.57-2.98-1.41-3.91-2.33-.94-.91-1.47-1.86-1.72-2.54-.13-.34-.2-.62-.23-.8-.03-.19-.04-.29-.03-.29Z"/>
          </g>
        </g>
        <g>
          <g>
            <g>
              <path class="cls-15" d="M514.38,29.48c-.19,.62-.88,.97-1.53,.78-.65-.19-1.03-.84-.83-1.46,.19-.62,.88-.97,1.53-.78,.65,.19,1.03,.84,.84,1.47Z"/>
              <path class="cls-15" d="M516.59,28.82c-.2,.1-.85-.86-2.1-1.29-1.24-.45-2.39-.12-2.47-.32-.04-.09,.2-.31,.7-.47,.49-.15,1.26-.2,2.04,.07,.78,.28,1.33,.79,1.61,1.21,.28,.43,.32,.75,.22,.79Z"/>
            </g>
            <g>
              <path class="cls-15" d="M502.01,25.92c-.19,.62-.88,.97-1.53,.78-.65-.19-1.03-.84-.83-1.46,.19-.62,.88-.97,1.53-.78,.65,.19,1.03,.84,.83,1.47Z"/>
              <path class="cls-15" d="M504.21,24.78c-.2,.1-.85-.86-2.1-1.29-1.24-.45-2.39-.12-2.47-.32-.04-.09,.2-.31,.7-.47,.49-.15,1.26-.2,2.04,.07,.78,.28,1.33,.79,1.61,1.21,.28,.43,.32,.75,.22,.79Z"/>
            </g>
            <path class="cls-15" d="M505.53,35.64c.02-.07,.84,.06,2.16,.34,.33,.08,.66,.12,.78-.08,.16-.2,.14-.6,.12-1.02-.03-.88-.06-1.8-.1-2.76-.11-3.92-.07-7.1,.09-7.1,.16,0,.37,3.17,.48,7.09,.02,.96,.04,1.88,.06,2.76,0,.4,.06,.89-.27,1.31-.17,.21-.46,.3-.69,.28-.23,0-.41-.07-.57-.11-1.29-.37-2.08-.64-2.06-.71Z"/>
            <path class="cls-15" d="M501.55,35.22c.21,.06-.26,1.42,.57,2.79,.82,1.37,2.32,1.72,2.27,1.91-.01,.09-.41,.15-1.03-.04-.61-.19-1.41-.68-1.92-1.52-.5-.84-.53-1.73-.39-2.31,.15-.59,.41-.87,.5-.83Z"/>
          </g>
          <path class="cls-15" d="M506.24,19.99c-.24,.3-1.43-.3-2.96-.63-1.52-.36-2.86-.35-2.94-.72-.04-.18,.28-.42,.87-.59,.59-.16,1.45-.21,2.37,0,.91,.21,1.67,.63,2.13,1.03,.46,.4,.64,.77,.53,.91Z"/>
          <path class="cls-15" d="M517.39,25.04c-.32,.21-1.08-.39-2.11-.76-1.02-.41-1.98-.47-2.08-.84-.04-.17,.2-.41,.68-.55,.47-.14,1.18-.14,1.88,.13,.7,.27,1.23,.74,1.49,1.16,.26,.42,.28,.75,.14,.86Z"/>
        </g>
      </g>
      <g>
        <path class="cls-5" d="M493.82,135.99c2.96,.95,3.58,4.16,3.19,5.64l-6.75,2.67-1.54-6.51,5.1-1.81Z"/>
        <g>
          <path class="cls-5" d="M437.08,135.97s13.53-1.4,22.04,1.59c8.51,2.99,19.07,5.22,23.74,4.17,4.06-.91,6.37-3.97,6.37-3.97,0,0-13.48-1.62-19.83-3.67-4.27-1.38-12.71-10.95-28.33-8.64l-3.99,10.52Z"/>
          <g>
            <path class="cls-5" d="M491.29,140.87c-.42-1.25-1.27-2.31-2.18-3.27l.12,.15c-1.41,.11-2.84,.22-4.2,.61-1.36,.39-2.67,1.1-3.55,2.2-.29,.36-.54,.8-.5,1.26,.05,.62,.58,1.08,1.06,1.46,1.3,1.03,2.65,2.08,4.25,2.53,1.6,.45,3.53,.14,4.54-1.17,.81-1.04,.88-2.52,.46-3.78Z"/>
            <path class="cls-15" d="M481.47,140.39s.06-.32,.43-.77c.36-.44,1.06-.95,2.03-1.26,.96-.32,2.2-.53,3.54-.3,1.33,.21,2.77,.97,3.6,2.33,.41,.67,.63,1.45,.57,2.2-.05,.75-.33,1.44-.75,1.98-.41,.55-.98,.93-1.55,1.13-.58,.19-1.15,.24-1.66,.2-1.02-.08-1.8-.38-2.33-.58-.26-.1-.46-.19-.6-.26-.13-.06-.2-.1-.2-.11,0,0,.08,.02,.22,.07,.19,.07,.39,.14,.61,.22,.53,.18,1.31,.45,2.31,.51,.97,.07,2.27-.22,3.05-1.3,.8-1.02,.99-2.68,.16-3.96-.79-1.3-2.17-2.04-3.46-2.25-1.3-.23-2.51-.04-3.46,.25-.96,.29-1.64,.76-2.01,1.18-.37,.42-.47,.73-.49,.71Z"/>
            <path class="cls-2" d="M484.33,140.62s-.32-.37-.81-.71c-.49-.34-.96-.48-.95-.51,0-.03,.5,.07,1,.42,.51,.35,.77,.78,.75,.79Z"/>
            <path class="cls-2" d="M486.52,140.72s-.32-.31-.73-.66c-.41-.35-.79-.58-.78-.61,.01-.02,.42,.17,.84,.53,.43,.35,.69,.72,.67,.74Z"/>
            <path class="cls-2" d="M487.41,145.35s-.05-.23-.16-.58c-.11-.35-.3-.83-.62-1.3-.32-.47-.68-.83-.97-1.07-.29-.23-.49-.35-.48-.37,0,0,.22,.09,.52,.31,.3,.22,.69,.59,1.01,1.07,.32,.48,.51,.97,.6,1.34,.09,.37,.09,.6,.09,.6Z"/>
            <path class="cls-2" d="M489.63,143.65s.01-.22,.02-.58c.01-.36,0-.85-.1-1.39-.1-.54-.25-1-.38-1.34-.13-.33-.24-.53-.22-.54,0,0,.04,.04,.09,.13,.05,.09,.12,.22,.2,.38,.15,.33,.32,.8,.42,1.35,.1,.54,.1,1.05,.07,1.41-.01,.18-.03,.32-.05,.42-.02,.1-.03,.15-.04,.15Z"/>
            <path class="cls-15" d="M489.64,139.48c.03,.07-1.5,.45-3.04,1.56-1.56,1.09-2.42,2.4-2.48,2.36-.02-.01,.17-.36,.56-.85,.39-.49,1.01-1.12,1.79-1.68,.79-.56,1.58-.93,2.18-1.14,.59-.21,.98-.27,.99-.25Z"/>
            <path class="cls-15" d="M486.29,138.39c.05,.05-1.12,.7-1.85,2.09-.76,1.38-.66,2.71-.73,2.7-.02,0-.08-.32-.04-.84,.04-.52,.2-1.24,.59-1.95,.38-.71,.89-1.25,1.31-1.56,.42-.32,.72-.45,.73-.43Z"/>
            <path class="cls-15" d="M490,145.4s-.06-.33-.26-.81c-.19-.48-.59-1.09-1.19-1.62-1.22-1.03-2.45-1.54-2.4-1.62,.01-.02,.32,.1,.79,.33,.47,.24,1.13,.59,1.75,1.14,.62,.55,1.02,1.21,1.19,1.72,.17,.52,.14,.86,.12,.86Z"/>
          </g>
          <path class="cls-15" d="M461.61,138.25s-.48-.06-1.33-.25c-.85-.19-2.07-.46-3.6-.75-3.04-.58-7.29-1.21-12.01-1.41-2.35-.1-4.61,0-6.56,.54-1.95,.52-3.57,1.43-4.78,2.36-2.43,1.91-3.31,3.7-3.4,3.63-.02-.01,.17-.46,.66-1.19,.49-.72,1.29-1.73,2.51-2.73,1.21-1,2.87-1.97,4.89-2.54,2.02-.57,4.33-.69,6.71-.59,4.76,.2,9.03,.89,12.06,1.57,1.52,.34,2.74,.66,3.57,.91,.83,.25,1.29,.41,1.28,.44Z"/>
          <path class="cls-15" d="M362.17,124.69s.22-.2,.69-.54c.47-.33,1.19-.77,2.19-1.2,1.97-.84,5.23-1.64,9.07-.7,1.9,.46,3.9,1.41,5.65,2.92,1.76,1.5,3.28,3.45,4.75,5.54,1.47,2.1,2.97,4.31,4.78,6.41,1.79,2.11,3.8,4.17,6.01,6.11,4.43,3.85,9.2,6.97,14.04,8.54,2.41,.79,4.81,1.19,7.06,1.17,2.25,.02,4.34-.46,5.96-1.47,1.63-.99,2.78-2.33,3.72-3.53,.93-1.21,1.66-2.31,2.26-3.22,.57-.87,1.03-1.57,1.37-2.08,.32-.47,.49-.72,.51-.71,.02,0-.13,.27-.42,.76-.32,.53-.75,1.24-1.29,2.13-.57,.92-1.28,2.04-2.2,3.28-.92,1.23-2.07,2.62-3.75,3.67-1.66,1.08-3.85,1.59-6.15,1.59-2.3,.04-4.76-.36-7.21-1.15-4.93-1.58-9.77-4.72-14.23-8.6-2.23-1.95-4.25-4.03-6.06-6.17-1.82-2.13-3.34-4.37-4.78-6.46-1.45-2.09-2.94-4.02-4.64-5.49-1.69-1.48-3.61-2.42-5.46-2.89-3.73-.96-6.94-.24-8.9,.53-2,.81-2.92,1.62-2.96,1.55Z"/>
          <path class="cls-2" d="M387.08,115.81s-.25,.02-.7,.04c-.45,.01-1.11,.06-1.92,.15-1.61,.18-3.82,.62-6.14,1.51-2.31,.89-4.25,2.05-5.56,3-.66,.47-1.18,.88-1.52,1.17-.35,.29-.55,.45-.55,.45,0,0,.71-.71,2.02-1.68,1.31-.97,3.25-2.14,5.57-3.04,2.32-.89,4.55-1.32,6.17-1.48,1.62-.16,2.63-.11,2.63-.11Z"/>
          <path class="cls-2" d="M403.13,125.54s-.26,.04-.73,.1c-.47,.05-1.16,.17-1.99,.34-1.67,.34-3.95,1-6.3,2.12-2.35,1.13-4.29,2.49-5.59,3.59-.65,.55-1.17,1.01-1.51,1.34-.34,.33-.54,.51-.54,.51,0,0,.7-.8,2-1.91,1.3-1.11,3.24-2.49,5.6-3.62,2.36-1.13,4.65-1.78,6.33-2.1,1.68-.32,2.74-.37,2.74-.37Z"/>
          <path class="cls-2" d="M402.64,148.31s-.07-.27-.14-.77c-.07-.5-.12-1.23-.07-2.13,.08-1.8,.71-4.26,2.05-6.66,1.34-2.4,2.97-4.3,4.15-5.65,1.19-1.34,1.97-2.14,1.97-2.14,0,0-.18,.21-.51,.59-.41,.47-.88,1-1.4,1.59-1.17,1.36-2.78,3.26-4.11,5.65-1.33,2.39-1.97,4.83-2.07,6.62-.06,.89-.02,1.62,.04,2.12,.02,.25,.06,.44,.08,.57,.02,.13,.02,.2,.02,.2Z"/>
          <path class="cls-2" d="M420.24,138.22s-.13-.28-.26-.77c-.13-.48-.25-1.17-.27-1.94-.01-.77,.08-1.46,.19-1.95,.11-.49,.23-.78,.23-.78,.02,0-.07,.3-.16,.79-.09,.49-.18,1.17-.16,1.93,.02,.76,.12,1.44,.23,1.93,.11,.49,.21,.78,.19,.79Z"/>
          <path class="cls-2" d="M423.32,150.41s-.66-.39-1.6-1.19c-.94-.8-2.12-2.06-3.11-3.68-.99-1.62-1.57-3.24-1.85-4.45-.29-1.2-.33-1.97-.33-1.97,0,0,.04,.19,.1,.53,.05,.34,.15,.83,.31,1.43,.3,1.19,.89,2.8,1.87,4.41,.98,1.6,2.15,2.86,3.07,3.68,.46,.41,.85,.72,1.13,.92,.28,.2,.43,.33,.43,.33Z"/>
          <path class="cls-2" d="M436.81,136.58s-.51-.23-1.3-.69c-.78-.45-1.84-1.14-2.93-2-1.09-.86-1.99-1.73-2.61-2.39-.62-.66-.96-1.11-.96-1.11,0,0,.1,.1,.28,.28,.25,.26,.5,.52,.74,.77,.63,.65,1.54,1.5,2.63,2.36,1.08,.86,2.13,1.55,2.9,2.02,.3,.18,.61,.36,.92,.54,.22,.13,.34,.2,.34,.2Z"/>
          <path class="cls-2" d="M446.4,135.25s-.02-.14-.02-.39c-.02-.36-.03-.72-.05-1.07-.05-.91-.14-2.16-.32-3.53-.19-1.37-.43-2.61-.62-3.49-.08-.35-.16-.69-.24-1.05-.06-.25-.08-.39-.08-.39,0,0,.05,.13,.12,.38,.07,.24,.17,.6,.27,1.04,.22,.88,.47,2.12,.65,3.5,.18,1.38,.27,2.63,.29,3.54,.01,.45,.02,.82,.01,1.08,0,.25-.02,.4-.02,.4Z"/>
          <path class="cls-2" d="M458.86,128.44s0,.12-.01,.33c-.03,.31-.06,.6-.08,.89-.08,.75-.23,1.78-.47,2.9-.23,1.12-.5,2.13-.72,2.85-.09,.27-.18,.55-.27,.85-.07,.2-.11,.31-.12,.3,0,0,.02-.11,.08-.32,.08-.3,.16-.58,.24-.85,.2-.72,.46-1.73,.69-2.85,.23-1.12,.39-2.14,.49-2.89,.04-.28,.08-.57,.12-.88,.03-.21,.05-.32,.05-.32Z"/>
          <path class="cls-2" d="M467.33,136.67s.1-.74,.29-1.63c.19-.9,.36-1.62,.39-1.61,.03,0-.1,.74-.29,1.63-.19,.9-.36,1.62-.39,1.61Z"/>
          <path class="cls-2" d="M481.35,141.32s.04-.26,.08-.67c.04-.42,.08-1,.09-1.64,0-.45,0-.92,0-1.64,0-.15,0-.32,0-.5,0-.12,0-.18,.01-.18,.02,0,.04,.26,.06,.68,.02,.42,.04,1,.02,1.65-.01,.64-.06,1.23-.12,1.64-.06,.42-.16,.67-.16,.67Z"/>
          <g>
            <g>
              <path class="cls-5" d="M484.04,144.58c-1.08-4.36-5.55-7.15-9.98-7.85-4.43-.7-8.94,.22-13.39,.78-4.45,.56-9.2,.71-13.18-1.35-1.27,2.33-1.92,4.99-1.86,7.65,.78,.02,1.56,.03,2.34,.05,.48,3.38,3.58,5.96,6.91,6.69,3.33,.73,5.53,.75,8.65-.61,3.28-1.43,7.52-3.61,10.74-4.74,3.22-1.13,6.79-1.69,10.03-.62"/>
              <path class="cls-15" d="M449.79,137.19s-.15,.36-.4,.94c-.25,.58-.56,1.39-.82,2.31-.26,.92-.42,1.77-.49,2.4-.07,.62-.08,1.01-.11,1.01-.02,0-.07-.39-.04-1.03,.03-.64,.17-1.51,.43-2.44,.27-.93,.6-1.75,.89-2.31,.28-.57,.51-.89,.53-.88Z"/>
            </g>
            <path class="cls-15" d="M448.14,141.9c-.02,.06-.56-.04-1.24-.11-.68-.08-1.23-.1-1.23-.16,0-.06,.56-.13,1.26-.05,.69,.08,1.23,.27,1.21,.32Z"/>
            <path class="cls-15" d="M448.64,139.19s-.46-.28-1.07-.49c-.61-.22-1.14-.23-1.14-.29,0-.05,.56-.14,1.21,.1,.65,.23,1.04,.65,1,.69Z"/>
            <path class="cls-15" d="M453.3,137.76s.24,0,.69,0c.45,0,1.12,.02,1.99,0,1.73-.01,4.24-.14,7.3-.74,3.05-.59,6.83-.99,10.97-.31,2.05,.36,4.18,1.1,6.06,2.43,1.85,1.35,3.45,3.27,4.16,5.65l.07,.22-.21-.1c-.9-.44-1.95-.74-3.03-.82-2.6-.19-5.1,.56-7.42,1.33-2.33,.8-4.52,1.71-6.57,2.68-1.03,.48-2.03,.95-3.01,1.38-.98,.42-1.95,.84-2.94,1.07-1.98,.47-3.9,.48-5.6,.22-1.7-.26-3.19-.86-4.31-1.64-1.14-.77-1.91-1.7-2.41-2.51-.5-.82-.75-1.54-.89-2.02-.13-.49-.17-.75-.17-.75,.06-.03,.13,1.09,1.13,2.73,.51,.8,1.28,1.71,2.41,2.46,1.12,.76,2.58,1.34,4.27,1.59,1.68,.25,3.59,.23,5.53-.24,.97-.23,1.93-.65,2.91-1.07,.98-.43,1.98-.9,3-1.38,2.05-.97,4.25-1.9,6.58-2.7,2.33-.77,4.85-1.54,7.5-1.34,1.1,.08,2.18,.39,3.1,.84l-.15,.12c-.69-2.3-2.27-4.21-4.08-5.54-1.85-1.31-3.94-2.05-5.98-2.41-4.09-.69-7.87-.31-10.91,.26-3.07,.58-5.6,.69-7.33,.68-1.73,0-2.68-.08-2.68-.08Z"/>
            <path class="cls-2" d="M453.13,149.94s-.07-.16-.17-.46c-.1-.3-.22-.74-.34-1.28-.24-1.1-.41-2.65-.3-4.36,.12-1.71,.51-3.23,.9-4.28,.19-.53,.37-.94,.51-1.22,.14-.28,.22-.43,.23-.43,.03,.02-.26,.64-.61,1.7-.35,1.05-.71,2.56-.83,4.25-.12,1.69,.03,3.23,.23,4.32,.2,1.09,.4,1.76,.37,1.77Z"/>
            <path class="cls-2" d="M461.79,144.05s.07,.32,.16,.84c.09,.52,.23,1.23,.43,2.01,.41,1.55,.82,2.8,.75,2.82-.03,0-.15-.29-.34-.79-.18-.5-.41-1.19-.62-1.98-.2-.78-.33-1.51-.38-2.04-.05-.53-.04-.86-.01-.86Z"/>
            <path class="cls-2" d="M460.55,140.66c.06,0,.03,.73,.11,1.63,.07,.89,.22,1.61,.16,1.62-.05,.02-.29-.69-.37-1.61-.08-.91,.04-1.65,.1-1.64Z"/>
            <path class="cls-2" d="M462.7,137.16c.06,.03-.21,.67-.36,1.5-.16,.83-.14,1.53-.2,1.53-.05,0-.17-.71,0-1.57,.16-.87,.52-1.49,.57-1.47Z"/>
            <path class="cls-2" d="M469.61,139.11s-.45-.44-.62-1.18c-.18-.74-.04-1.35,.01-1.34,.06,0,.02,.6,.19,1.29,.16,.69,.47,1.2,.42,1.23Z"/>
            <path class="cls-2" d="M474.98,144.73s-.25-.28-.58-.79c-.32-.51-.73-1.24-1.09-2.09-.36-.85-.61-1.65-.75-2.23-.14-.59-.19-.96-.17-.96,.03,0,.13,.35,.31,.92,.18,.57,.45,1.35,.8,2.19,.36,.84,.74,1.57,1.02,2.1,.29,.52,.48,.84,.45,.86Z"/>
            <path class="cls-2" d="M476.48,137.47c.03,.05-.14,.21-.31,.44-.17,.23-.27,.44-.33,.43-.05-.01-.03-.29,.16-.55,.19-.27,.45-.37,.48-.32Z"/>
            <path class="cls-2" d="M484.39,144.92s-.1-.09-.29-.25c-.19-.17-.48-.4-.87-.66-.8-.52-2.08-1.11-3.77-1.34-1.69-.24-3.75-.03-5.9,.65-2.16,.66-4.4,1.75-6.78,2.8-2.38,1.06-4.78,1.86-7.05,2.03-2.26,.2-4.32-.07-5.97-.52-1.66-.43-2.92-1.04-3.76-1.5-.42-.23-.74-.42-.95-.56-.21-.14-.32-.21-.32-.21,0,0,.12,.06,.33,.19,.21,.14,.53,.32,.95,.55,.84,.44,2.1,1.04,3.76,1.46,1.64,.44,3.69,.7,5.94,.5,2.25-.18,4.64-.97,7.01-2.03,2.38-1.05,4.63-2.14,6.8-2.8,2.16-.67,4.24-.88,5.94-.63,1.71,.23,2.99,.85,3.79,1.38,.79,.54,1.14,.95,1.14,.95Z"/>
            <path class="cls-2" d="M467.71,140.21s-.25,.12-.71,.31c-.45,.2-1.13,.46-1.97,.74-1.68,.57-4.1,1.17-6.82,1.13-2.72-.02-5.12-.67-6.82-1.15-1.7-.5-2.74-.87-2.74-.87,0,0,.27,.07,.74,.21,.6,.17,1.26,.37,2.02,.58,1.7,.46,4.1,1.09,6.8,1.11,2.7,.04,5.11-.55,6.79-1.09,.84-.28,1.52-.52,1.97-.71,.46-.18,.72-.27,.72-.27Z"/>
            <path class="cls-2" d="M477.86,139.15s-.09-.05-.24-.16c-.15-.11-.39-.25-.71-.43-.63-.34-1.6-.75-2.86-.99-1.26-.24-2.8-.31-4.49-.14-1.69,.16-3.52,.55-5.45,.91-3.86,.81-7.48,.63-10.02,.27-2.55-.35-4.1-.75-4.1-.75,0,0,.39,.07,1.1,.2,.71,.13,1.73,.31,3.01,.47,2.54,.34,6.14,.51,9.99-.3,1.93-.36,3.76-.74,5.46-.9,1.7-.17,3.25-.09,4.51,.17,1.27,.25,2.24,.67,2.87,1.02,.63,.36,.93,.62,.93,.62Z"/>
            <path class="cls-15" d="M484.16,144.41c-.09,.07-.79-1.41-2.75-3.01-.97-.79-2.27-1.58-3.85-2.06-1.57-.48-3.43-.66-5.31-.34-1.89,.3-3.53,1.16-4.98,2-1.45,.84-2.74,1.66-3.91,2.21-1.16,.56-2.18,.86-2.89,.96-.35,.07-.64,.07-.83,.08-.19,0-.29,0-.29-.02-.02-.1,1.61-.14,3.84-1.35,1.12-.58,2.38-1.42,3.83-2.29,1.44-.87,3.15-1.78,5.13-2.1,1.96-.34,3.9-.14,5.54,.39,1.64,.53,2.97,1.39,3.94,2.24,.98,.85,1.61,1.7,2,2.3,.38,.61,.54,.98,.51,.99Z"/>
            <path class="cls-15" d="M470.27,139.3c.05,.12-2.62,1.12-6.1,1.35-3.48,.26-6.26-.35-6.23-.47,.02-.16,2.79,.21,6.19-.05,3.41-.23,6.09-.99,6.14-.84Z"/>
          </g>
          <path class="cls-2" d="M465.32,136.23c-.24-.1-.55-.23-1.13-.48-.74-.31-1.83-.76-3.27-1.28-2.86-1-7.12-2.41-12.58-2.61-2.72-.08-5.73,.2-8.79,1.14-3.05,.93-6.17,2.56-8.72,5.11-2.6,2.49-4.78,5.64-7.78,8.2-1.49,1.27-3.27,2.3-5.25,2.79-1.99,.46-4.12,.29-6.1-.36-1.99-.64-3.79-1.71-5.36-3-1.57-1.29-2.91-2.79-4.11-4.35-2.4-3.11-4.31-6.4-6.49-9.26-2.16-2.88-4.48-5.43-6.93-7.49-2.44-2.06-5.01-3.66-7.54-4.67-5.07-2.06-9.7-1.95-12.64-1.26-1.49,.32-2.58,.81-3.32,1.11-.56,.28-.86,.43-1.09,.55,.23-.12,.52-.28,1.08-.57,.74-.31,1.82-.81,3.32-1.13,2.94-.71,7.58-.83,12.67,1.23,2.54,1.01,5.11,2.61,7.56,4.68,2.46,2.07,4.78,4.62,6.95,7.5,2.19,2.87,4.1,6.15,6.5,9.26,1.2,1.55,2.53,3.05,4.1,4.33,1.56,1.28,3.36,2.34,5.33,2.98,1.96,.64,4.08,.82,6.04,.36,1.96-.48,3.73-1.5,5.21-2.77,2.98-2.55,5.16-5.7,7.77-8.2,2.57-2.56,5.7-4.19,8.76-5.13,3.07-.94,6.09-1.22,8.82-1.13,5.47,.21,9.74,1.63,12.59,2.65,2.86,1.06,4.38,1.8,4.38,1.8Z"/>
          <path class="cls-2" d="M416.25,139.14s-.57,.08-1.58-.06c-1.01-.15-2.45-.61-3.97-1.64-1.52-1.02-3.03-2.64-4.42-4.6-1.4-1.96-2.81-4.21-4.64-6.3-3.64-4.22-7.86-7.11-11.07-8.8-1.61-.85-2.97-1.42-3.91-1.8-.95-.36-1.48-.56-1.48-.56,0,0,.54,.17,1.49,.52,.95,.37,2.32,.93,3.93,1.77,3.23,1.67,7.46,4.57,11.11,8.79,1.83,2.1,3.24,4.36,4.64,6.31,1.39,1.96,2.88,3.57,4.39,4.59,1.5,1.04,2.93,1.5,3.93,1.66,.5,.07,.9,.1,1.17,.1,.27,0,.41,0,.41,0Z"/>
          <path class="cls-2" d="M462.29,130.7s-.11-.06-.3-.17c-.2-.11-.48-.29-.87-.5-.76-.42-1.88-.99-3.31-1.58-2.85-1.17-7.09-2.27-11.82-2.12-4.74,.15-8.9,1.51-11.67,2.85-1.4,.67-2.48,1.31-3.21,1.78-.37,.23-.64,.43-.83,.55-.19,.13-.29,.19-.29,.19,0,0,.38-.29,1.1-.77,.72-.48,1.8-1.13,3.2-1.81,2.77-1.37,6.94-2.75,11.7-2.89,4.76-.15,9,.96,11.86,2.16,1.44,.59,2.55,1.17,3.3,1.61,.75,.43,1.15,.7,1.15,.7Z"/>
          <path class="cls-2" d="M441.97,135.15s-.05-.14-.13-.39c-.07-.26-.19-.62-.33-1.07-.3-.9-.76-2.12-1.41-3.42-.65-1.29-1.34-2.4-1.88-3.18-.27-.39-.49-.7-.65-.91-.16-.21-.24-.34-.24-.34,0,0,.4,.44,.95,1.21,.56,.77,1.27,1.88,1.92,3.18,.65,1.3,1.1,2.53,1.38,3.44,.28,.91,.39,1.49,.39,1.49Z"/>
          <path class="cls-2" d="M452.61,125.87s.07,.55,.08,1.46c.01,.9-.04,2.15-.23,3.51-.2,1.36-.5,2.58-.76,3.44-.26,.86-.49,1.38-.49,1.38,0,0,.03-.14,.11-.38,.1-.35,.21-.68,.31-1.02,.25-.86,.54-2.07,.73-3.43,.19-1.36,.26-2.6,.26-3.5,0-.35,0-.7,0-1.07,0-.25,0-.39,0-.39Z"/>
          <path class="cls-2" d="M429.54,142.83s-.47-.25-1.17-.74c-.7-.49-1.63-1.23-2.55-2.16-.92-.93-1.65-1.86-2.14-2.57-.49-.7-.73-1.17-.73-1.17,0,0,.08,.1,.22,.3,.13,.2,.33,.48,.58,.83,.5,.69,1.24,1.61,2.15,2.54,.92,.92,1.83,1.67,2.52,2.17,.34,.25,.63,.45,.82,.58,.2,.13,.3,.22,.3,.22Z"/>
          <path class="cls-2" d="M414.11,139.72s-.13-.39-.24-1.04c-.11-.65-.19-1.56-.13-2.57,.06-1.01,.25-1.91,.44-2.54,.19-.63,.37-1,.37-1,0,0-.02,.1-.08,.28-.06,.17-.13,.43-.22,.75-.17,.63-.35,1.53-.41,2.52-.06,1,0,1.91,.1,2.56,.05,.32,.09,.59,.13,.77,.03,.18,.05,.28,.04,.28Z"/>
          <path class="cls-2" d="M414.06,152.68s-.33-.6-.74-1.62c-.41-1.02-.89-2.47-1.23-4.13-.33-1.65-.45-3.18-.46-4.28-.01-1.1,.06-1.78,.06-1.78,0,0,0,.17,0,.48,0,.31,0,.75,.01,1.3,.03,1.1,.16,2.62,.49,4.26,.33,1.64,.8,3.09,1.19,4.12,.2,.51,.37,.93,.49,1.21,.12,.28,.18,.44,.18,.44Z"/>
          <path class="cls-2" d="M425.81,131.84s.03,.37,.18,.78c.15,.42,.39,.69,.37,.71-.02,.02-.31-.24-.47-.68-.16-.44-.11-.82-.09-.82Z"/>
          <path class="cls-2" d="M406.29,128.11s-.23,.13-.65,.36c-.42,.22-1.02,.56-1.75,1-1.46,.88-3.41,2.23-5.34,3.97-1.93,1.75-3.47,3.54-4.5,4.9-.51,.68-.92,1.24-1.18,1.64-.27,.4-.42,.61-.42,.61,0,0,.53-.92,1.54-2.3,1.01-1.38,2.55-3.19,4.49-4.94,1.94-1.75,3.9-3.09,5.37-3.96,1.47-.87,2.44-1.3,2.44-1.3Z"/>
          <path class="cls-2" d="M394.26,118.08s-.22,.06-.62,.15c-.4,.09-.99,.23-1.7,.43-1.43,.39-3.37,1.04-5.42,1.98-2.05,.95-3.8,2.01-5.03,2.84-.61,.41-1.1,.76-1.43,1.01-.33,.25-.52,.38-.52,.38,0,0,.69-.6,1.91-1.45,1.21-.85,2.97-1.92,5.02-2.87,2.06-.95,4.01-1.58,5.44-1.96,1.43-.38,2.34-.51,2.34-.51Z"/>
          <path class="cls-2" d="M475.87,135.69s-.02,.28-.1,.62c-.08,.34-.17,.6-.2,.6-.03,0,.02-.28,.1-.62,.08-.34,.17-.6,.2-.6Z"/>
        </g>
      </g>
      <g>
        <path class="cls-13" d="M521.28,135.25s4.51,.94,6.44,1.36c.62,.14,1.27,.04,1.9,.15,3.08,.52,7.25,.26,8.35-.15,1.91-.7,1.99,1.74-.07,2.79-2.06,1.05-3.33,1.16-3.33,1.16l4.97,3.99c.26,.21,.43,.5,.47,.83l1.27,8.8c.14,.74-.25,1.52-.97,1.74-.35,.11-.71,.07-.95-.34l.14,1.18c.23,1.96-2.71,2.46-3.06,.52,0-.02,0-.05-.01-.07l-1.75,.99s-1.16,1.2-2.41-.47c-1.03-1.38-4.13-6.86-4.13-6.86,0,0-13.18-5.55-12.97-7.77l6.11-7.85Z"/>
        <path class="cls-11" d="M536.44,157.28c-.08,0-.15-.82-.35-2.13-.2-1.3-.58-3.13-.84-5.13-.18-.97-.41-1.96-.63-2.75-.14-.36-.39-.63-.71-.81-.32-.2-.62-.4-.92-.58-1.12-.72-1.8-1.2-1.76-1.26,.04-.06,.78,.3,1.95,.94,.31,.17,.63,.35,.95,.53,.37,.19,.75,.54,.93,1.01,.28,.9,.5,1.81,.7,2.83,.27,2.04,.58,3.83,.69,5.18,.11,1.34,.05,2.17-.01,2.17Z"/>
        <path class="cls-11" d="M539.36,155.58c-.2,.04-.53-3.16-1.34-6.97-.21-.95-.37-1.91-.85-2.48-.55-.61-1.13-1.12-1.62-1.52-.49-.4-.91-.69-1.22-.86-.31-.17-.5-.21-.49-.25,0-.03,.22-.05,.57,.07,.35,.12,.83,.37,1.36,.75,.54,.38,1.14,.86,1.75,1.5,.65,.75,.78,1.74,1,2.69,.44,1.93,.63,3.71,.75,5,.12,1.29,.14,2.09,.08,2.09Z"/>
        <path class="cls-11" d="M528.58,147.25c.04-.06,.69,.25,1.73,.81,.27,.15,.55,.31,.84,.46,.28,.16,.67,.35,.95,.69,.3,.33,.44,.78,.56,1.17,.13,.41,.26,.82,.39,1.25,1.05,3.43,1.79,6.25,1.65,6.28s-1.1-2.7-2.14-6.12c-.13-.43-.25-.84-.38-1.25-.12-.42-.22-.77-.44-1.03-.21-.28-.5-.43-.8-.63-.28-.18-.54-.35-.81-.52-.98-.64-1.57-1.07-1.54-1.13Z"/>
        <path class="cls-11" d="M528.93,137.75c.07-.2,1.93,.53,4.01,1.74,2.11,1.19,3.63,2.47,3.52,2.59-.08,.09-1.69-.96-3.78-2.14-.9-.52-1.74-1-2.66-1.53-.68-.4-1.1-.6-1.09-.67Z"/>
      </g>
    </g>
  </g>
</svg>